<?xml version="1.0" encoding="UTF-8" standalone="no"?>
<svg
   xmlns:dc="http://purl.org/dc/elements/1.1/"
   xmlns:cc="http://creativecommons.org/ns#"
   xmlns:rdf="http://www.w3.org/1999/02/22-rdf-syntax-ns#"
   xmlns:svg="http://www.w3.org/2000/svg"
   xmlns="http://www.w3.org/2000/svg"
   xmlns:sodipodi="http://sodipodi.sourceforge.net/DTD/sodipodi-0.dtd"
   xmlns:inkscape="http://www.inkscape.org/namespaces/inkscape"
   version="1.0"
   width="128.000000pt"
   height="128.000000pt"
   viewBox="0 0 128.000000 128.000000"
   preserveAspectRatio="xMidYMid meet"
   id="svg4994"
   sodipodi:docname="pseudonymous (1).svg"
   inkscape:version="0.92.3 (2405546, 2018-03-11)">
  <metadata
     id="metadata5000">
    <rdf:RDF>
      <cc:Work
         rdf:about="">
        <dc:format>image/svg+xml</dc:format>
        <dc:type
           rdf:resource="http://purl.org/dc/dcmitype/StillImage" />
        <dc:title></dc:title>
      </cc:Work>
    </rdf:RDF>
  </metadata>
  <defs
     id="defs4998" />
  <sodipodi:namedview
     pagecolor="#ffffff"
     bordercolor="#666666"
     borderopacity="1"
     objecttolerance="10"
     gridtolerance="10"
     guidetolerance="10"
     inkscape:pageopacity="0"
     inkscape:pageshadow="2"
     inkscape:window-width="1853"
     inkscape:window-height="1025"
     id="namedview4996"
     showgrid="false"
     inkscape:zoom="7.8223688"
     inkscape:cx="67.846584"
     inkscape:cy="172.73983"
     inkscape:window-x="67"
     inkscape:window-y="27"
     inkscape:window-maximized="1"
     inkscape:current-layer="g4992" />
  <g
     transform="translate(0.000000,128.000000) scale(0.100000,-0.100000)"
     fill="#000000"
     stroke="none"
     id="g4992">
    <path
       style="fill:#0b3e61;fill-opacity:1;stroke-width:0.18079096"
       d="m 52.39322,154.40633 c -1.154174,-0.0814 -3.310221,-0.44221 -3.782889,-0.63301 -1.354561,-0.54677 -1.729276,-0.77115 -2.441069,-1.46172 -0.797335,-0.77356 -1.39846,-2.05468 -1.626502,-3.4664 -0.302499,-1.87267 -0.187098,-14.11669 -0.0785,-20.33898 0.04983,-0.79548 0.0271,-0.874 0.03237,-1.08596 0.0087,-0.3518 0.342999,-0.16945 1.749689,-0.25201 4.594351,0.11739 7.414694,-0.0482 14.025504,-0.0733 11.217983,-0.0425 11.389104,-0.15549 11.646829,-0.18717 0.05433,-0.0543 0.131058,-7.72955 0.180775,-14.89542 l 0.135597,-13.480837 2.937854,-0.05201 c 3.845432,-0.06808 5.757787,-1.209311 8.135594,-2.353559 2.871472,-1.38181 4.725971,-2.705112 7.058525,-5.0367 3.735301,-3.733757 6.083137,-7.836882 7.400564,-12.93337 2.013534,-7.789387 0.5095,-16.510179 -3.865204,-22.411482 C 90.617989,51.313919 85.156385,47.388531 79.809131,45.615256 78.800435,45.280749 76.653104,44.745391 75.037285,44.42557 l -2.937853,-0.581491 0.002,-13.216979 c 0.0011,-7.269338 0.05056,-13.51063 0.109926,-13.869537 l 0.107938,-0.652558 1.381599,0.251162 c 1.084369,0.197128 6.008475,1.155659 8.251654,1.606274 3.824678,0.768311 10.147337,2.816811 13.378531,4.334557 3.568305,1.676093 4.205767,2.009831 6.05711,3.171153 0.54656,0.342848 1.21609,0.737297 1.48786,0.876554 0.27177,0.139256 0.63787,0.38497 0.81356,0.546031 0.17569,0.16106 0.72513,0.575166 1.22098,0.920236 0.49585,0.345069 0.9962,0.708754 1.1119,0.808189 0.1157,0.09943 0.68628,0.580818 1.26795,1.06974 1.24852,1.049433 5.1244,4.944047 6.02934,6.058477 0.34802,0.428588 0.8552,1.033969 1.12706,1.345291 0.27186,0.311322 0.49558,0.621246 0.49717,0.688719 0.002,0.06748 0.10985,0.230187 0.24059,0.361582 0.38693,0.3889 2.77741,4.010698 3.39998,5.151301 0.6916,1.267053 2.64505,5.183967 3.60954,7.237602 1.66251,3.539862 3.29718,9.449617 3.86536,13.974294 0.59566,4.743394 0.48715,11.389584 -0.25679,15.728813 -0.0938,0.546893 -0.21388,1.279096 -0.26692,1.627119 -0.11924,0.782317 -0.24058,1.382165 -0.35948,1.777155 -0.05,0.166067 -0.13904,0.546009 -0.19789,0.844314 -0.0589,0.298305 -0.1297,0.623729 -0.15744,0.723164 -0.0277,0.09943 -0.14683,0.546892 -0.26464,0.99435 -0.25332,0.962128 -1.2585,4.092632 -1.48029,4.610169 -0.0852,0.19887 -0.3343,0.80904 -0.5535,1.355933 -0.632,1.576779 -1.40683,3.290341 -1.79848,3.977401 -0.19839,0.348022 -0.54212,0.99887 -0.76384,1.446327 -0.22173,0.447458 -0.4479,0.854238 -0.5026,0.903955 -0.20744,0.188524 -1.25647,2.002113 -1.25647,2.172203 0,0.0979 -0.0814,0.17808 -0.18079,0.17808 -0.0994,0 -0.18079,0.12203 -0.18079,0.27118 0,0.14916 -0.061,0.27134 -0.1356,0.27151 -0.0746,1.8e-4 -0.37726,0.38662 -0.67264,0.85876 -0.29538,0.47214 -0.6208,0.9531 -0.72317,1.06881 -0.10236,0.1157 -0.3895,0.47874 -0.63808,0.80674 -2.06796,2.72859 -5.0139,5.8995 -7.32204,7.8812 -0.59661,0.51224 -1.32881,1.14498 -1.62712,1.40609 -3.3014,2.88981 -9.793162,6.69485 -14.734461,8.63638 -4.620903,1.81564 -7.633539,2.67297 -16.022599,4.19424 -0.607084,0.11009 -1.096737,0.17559 -1.556244,0.27775 -0.472959,0.10516 -0.890039,0.15608 -1.297133,0.23317 -0.298689,0.0566 -1.117659,0.14183 -1.191821,0.1568 l 0.0226,-0.22599 -0.0226,14.05584 v 13.82986 l -9.446328,-0.0583 c -5.19548,-0.0321 -9.731073,-0.0784 -10.079096,-0.10293 z"
       id="path5813"
       inkscape:connector-curvature="0"
       transform="matrix(7.4999998,0,0,-7.4999998,0,1280)"
       sodipodi:nodetypes="ccsccccscscssssssscsscssscccccccsccccccccccccccccssscsccccssssccccccc" />
    <path
       style="fill:#28679d;fill-opacity:1;stroke-width:1.36383498"
       d="m 502.28675,542.68365 c -18.02423,2.08526 -46.28877,13.29266 -66.79469,26.48531 -70.2889,45.22093 -107.56462,117.51979 -100.6254,195.17004 6.30903,70.59853 49.1438,129.36136 120.15531,164.83495 35.8719,17.9197 48.89669,19.47983 79.89369,20.20929 1.02871,-0.93492 2.94952,1.18329 3.24684,-3.58273 0.18579,-2.97832 0.67397,-7.31746 0.65177,-22.37584 -0.0577,-38.60196 -0.87396,-38.58875 -0.43511,-71.85439 0.0139,-1.05299 0.23152,0.25848 -6.72795,-1.11643 -5.74711,-1.1354 -14.61503,-4.06417 -19.89973,-5.66619 -26.70713,-8.09609 -46.71335,-28.97766 -61.90077,-58.81051 -14.91846,-29.3045 -15.391,-50.3506 -1.76875,-78.77515 8.08328,-16.86678 15.88678,-27.5129 29.32776,-40.0111 11.29895,-10.50641 23.72588,-17.90261 37.28801,-22.19287 6.49355,-2.05418 18.71226,-3.77145 23.53063,-3.6649 0,0 0.66381,-1.55159 0.69825,-3.28893 0.22067,-11.13281 -0.10528,-11.55542 0.22176,-39.35911 0.18943,-16.10473 0.14614,-35.85456 0.17997,-43.49863 l 0.0615,-13.8983 -14.06078,0.1782 c -7.73344,0.098 -18.10246,0.64582 -23.04229,1.21728 z"
       id="path5815"
       inkscape:connector-curvature="0"
       sodipodi:nodetypes="cssscscsscsssssssscccc" />
    <path
       style="fill:#28679d;fill-opacity:1;stroke-width:0.18079096"
       d=""
       id="path5817"
       inkscape:connector-curvature="0"
       transform="matrix(7.4999998,0,0,-7.4999998,0,1280)" />
    <path
       style="fill:#28679d;fill-opacity:1;stroke-width:0.18079096"
       d=""
       id="path5819"
       inkscape:connector-curvature="0"
       transform="matrix(7.4999998,0,0,-7.4999998,0,1280)" />
    <path
       style="fill:#28679d;fill-opacity:1;stroke-width:0.04519774"
       d="m 44.844536,70.092655 c 0,-0.310734 0.0072,-0.437853 0.01605,-0.282486 0.0088,0.155368 0.0088,0.409605 0,0.564972 -0.0088,0.155367 -0.01605,0.02825 -0.01605,-0.282486 z"
       id="path5821"
       inkscape:connector-curvature="0"
       transform="matrix(7.4999998,0,0,-7.4999998,0,1280)" />
  </g>
</svg>
