<?xml version="1.0" encoding="UTF-8"?>
<!DOCTYPE svg PUBLIC "-//W3C//DTD SVG 1.1//EN" "http://www.w3.org/Graphics/SVG/1.1/DTD/svg11.dtd">
<svg xmlns="http://www.w3.org/2000/svg" version="1.1" width="512px" height="512px" style="shape-rendering:geometricPrecision; text-rendering:geometricPrecision; image-rendering:optimizeQuality; fill-rule:evenodd; clip-rule:evenodd" xmlns:xlink="http://www.w3.org/1999/xlink">
<g><path style="opacity:0.999" fill="#288fdd" d="M 234.5,-0.5 C 248.167,-0.5 261.833,-0.5 275.5,-0.5C 288.662,0.860412 301.662,3.19375 314.5,6.5C 312.801,6.33982 311.134,6.50649 309.5,7C 297.5,19 285.5,31 273.5,43C 261.505,43.4999 249.505,43.6665 237.5,43.5C 237.5,61.1667 237.5,78.8333 237.5,96.5C 278.839,96.1668 320.172,96.5001 361.5,97.5C 374.889,115.209 388.222,132.876 401.5,150.5C 405.5,156.167 409.5,161.833 413.5,167.5C 393.167,167.5 372.833,167.5 352.5,167.5C 352.672,166.508 352.338,165.842 351.5,165.5C 342.963,154.273 334.296,143.106 325.5,132C 293.168,131.5 260.835,131.333 228.5,131.5C 228.5,143.167 228.5,154.833 228.5,166.5C 228.5,166.833 228.5,167.167 228.5,167.5C 215.106,167.075 201.773,167.575 188.5,169C 175.033,177.411 172.199,188.578 180,202.5C 183.605,206.721 188.105,209.554 193.5,211C 209.163,211.5 224.83,211.667 240.5,211.5C 244.267,217.38 248.267,223.046 252.5,228.5C 255.916,234.432 259.582,240.265 263.5,246C 281.164,246.5 298.83,246.667 316.5,246.5C 316.5,269.5 316.5,292.5 316.5,315.5C 305.732,328.102 294.065,339.936 281.5,351C 269.993,351.169 258.659,351.669 247.5,352.5C 232.638,356.543 226.638,366.209 229.5,381.5C 230.006,385.007 229.34,388.174 227.5,391C 216.966,397.1 206.3,402.933 195.5,408.5C 193.641,407.406 191.641,406.573 189.5,406C 175.994,405.831 162.66,405.331 149.5,404.5C 149.334,398.491 149.501,392.491 150,386.5C 164.333,366.5 178.667,346.5 193,326.5C 193.5,305.836 193.667,285.169 193.5,264.5C 181.482,264.832 169.482,264.499 157.5,263.5C 146.143,249.148 134.81,234.814 123.5,220.5C 103.007,219.503 82.3401,219.169 61.5,219.5C 61.5,205.167 61.5,190.833 61.5,176.5C 73.3453,176.828 85.012,176.495 96.5,175.5C 108.167,152.167 119.833,128.833 131.5,105.5C 132.49,99.69 132.823,93.69 132.5,87.5C 152.567,87.9641 172.567,87.4641 192.5,86C 201.911,79.9592 204.245,72.1258 199.5,62.5C 205.194,50.7499 202.194,41.9166 190.5,36C 168.9,34.533 147.233,34.033 125.5,34.5C 159.208,14.6564 195.541,2.98971 234.5,-0.5 Z"/></g>
<g><path style="opacity:1" fill="#65aa73" d="M 314.5,6.5 C 350.938,14.7224 383.605,30.3891 412.5,53.5C 413.619,63.7867 413.785,74.12 413,84.5C 411.164,99.8525 409.164,115.186 407,130.5C 405.452,137.372 403.618,144.039 401.5,150.5C 388.222,132.876 374.889,115.209 361.5,97.5C 320.172,96.5001 278.839,96.1668 237.5,96.5C 237.5,78.8333 237.5,61.1667 237.5,43.5C 249.505,43.6665 261.505,43.4999 273.5,43C 285.5,31 297.5,19 309.5,7C 311.134,6.50649 312.801,6.33982 314.5,6.5 Z"/></g>
<g><path style="opacity:0.992" fill="#cdd6dd" d="M 125.5,34.5 C 147.233,34.033 168.9,34.533 190.5,36C 202.194,41.9166 205.194,50.7499 199.5,62.5C 196.938,65.2226 193.938,67.3893 190.5,69C 170.662,69.1682 150.996,69.6682 131.5,70.5C 113.5,70.5 95.5,70.5 77.5,70.5C 58.541,72.3772 50.3743,64.0439 53,45.5C 55.3324,39.8356 59.4991,36.3356 65.5,35C 85.4972,34.5 105.497,34.3334 125.5,34.5 Z"/></g>
<g><path style="opacity:1" fill="#60a06c" d="M 412.5,53.5 C 441.272,75.087 463.938,101.754 480.5,133.5C 480.649,134.552 480.483,135.552 480,136.5C 469.833,146.667 459.667,156.833 449.5,167C 447.19,167.497 444.857,167.663 442.5,167.5C 432.833,167.5 423.167,167.5 413.5,167.5C 409.5,161.833 405.5,156.167 401.5,150.5C 403.618,144.039 405.452,137.372 407,130.5C 409.164,115.186 411.164,99.8525 413,84.5C 413.785,74.12 413.619,63.7867 412.5,53.5 Z"/></g>
<g><path style="opacity:1" fill="#267ab9" d="M 199.5,62.5 C 204.245,72.1258 201.911,79.9592 192.5,86C 172.567,87.4641 152.567,87.9641 132.5,87.5C 132.823,93.69 132.49,99.69 131.5,105.5C 131.5,93.8333 131.5,82.1667 131.5,70.5C 150.996,69.6682 170.662,69.1682 190.5,69C 193.938,67.3893 196.938,65.2226 199.5,62.5 Z"/></g>
<g><path style="opacity:1" fill="#65a973" d="M 77.5,70.5 C 95.5,70.5 113.5,70.5 131.5,70.5C 131.5,82.1667 131.5,93.8333 131.5,105.5C 119.833,128.833 108.167,152.167 96.5,175.5C 84.5,175.5 72.5,175.5 60.5,175.5C 60.5,190.167 60.5,204.833 60.5,219.5C 41.1667,219.5 21.8333,219.5 2.5,219.5C 2.5,218.167 2.5,216.833 2.5,215.5C 11.4715,158.548 36.4715,110.215 77.5,70.5 Z"/></g>
<g><path style="opacity:1" fill="#65aa74" d="M 351.5,165.5 C 310.67,166.499 269.67,166.832 228.5,166.5C 228.5,154.833 228.5,143.167 228.5,131.5C 260.835,131.333 293.168,131.5 325.5,132C 334.296,143.106 342.963,154.273 351.5,165.5 Z"/></g>
<g><path style="opacity:0.996" fill="#2278b8" d="M 480.5,133.5 C 498.123,165.661 508.456,199.995 511.5,236.5C 511.5,249.5 511.5,262.5 511.5,275.5C 508.792,303.686 502.125,331.019 491.5,357.5C 487.895,356.037 484.229,354.537 480.5,353C 437.835,352.5 395.168,352.333 352.5,352.5C 363.75,337.682 375.25,323.015 387,308.5C 387.333,296.167 387.667,283.833 388,271.5C 399.765,251.636 411.265,231.636 422.5,211.5C 430.337,212.032 438.003,211.199 445.5,209C 458.087,200.745 460.92,189.912 454,176.5C 450.839,172.491 447.006,169.491 442.5,167.5C 444.857,167.663 447.19,167.497 449.5,167C 459.667,156.833 469.833,146.667 480,136.5C 480.483,135.552 480.649,134.552 480.5,133.5 Z"/></g>
<g><path style="opacity:1" fill="#8fbc9e" d="M 351.5,165.5 C 352.338,165.842 352.672,166.508 352.5,167.5C 311.167,167.5 269.833,167.5 228.5,167.5C 228.5,167.167 228.5,166.833 228.5,166.5C 269.67,166.832 310.67,166.499 351.5,165.5 Z"/></g>
<g><path style="opacity:1" fill="#cdd6dd" d="M 228.5,167.5 C 269.833,167.5 311.167,167.5 352.5,167.5C 372.833,167.5 393.167,167.5 413.5,167.5C 423.167,167.5 432.833,167.5 442.5,167.5C 447.006,169.491 450.839,172.491 454,176.5C 460.92,189.912 458.087,200.745 445.5,209C 438.003,211.199 430.337,212.032 422.5,211.5C 361.833,211.5 301.167,211.5 240.5,211.5C 224.83,211.667 209.163,211.5 193.5,211C 188.105,209.554 183.605,206.721 180,202.5C 172.199,188.578 175.033,177.411 188.5,169C 201.773,167.575 215.106,167.075 228.5,167.5 Z"/></g>
<g><path style="opacity:1" fill="#60a16b" d="M 240.5,211.5 C 301.167,211.5 361.833,211.5 422.5,211.5C 411.265,231.636 399.765,251.636 388,271.5C 387.667,283.833 387.333,296.167 387,308.5C 375.25,323.015 363.75,337.682 352.5,352.5C 340.5,352.5 328.5,352.5 316.5,352.5C 316.5,340.167 316.5,327.833 316.5,315.5C 316.5,292.5 316.5,269.5 316.5,246.5C 317.332,268.663 317.832,290.996 318,313.5C 340.226,288.073 358.726,260.073 373.5,229.5C 333.172,228.5 292.839,228.167 252.5,228.5C 248.267,223.046 244.267,217.38 240.5,211.5 Z"/></g>
<g><path style="opacity:1" fill="#479caa" d="M 96.5,175.5 C 85.012,176.495 73.3453,176.828 61.5,176.5C 61.5,190.833 61.5,205.167 61.5,219.5C 82.3401,219.169 103.007,219.503 123.5,220.5C 102.833,220.5 82.1667,220.5 61.5,220.5C 61.5,234.833 61.5,249.167 61.5,263.5C 61.1667,263.5 60.8333,263.5 60.5,263.5C 60.5,249.167 60.5,234.833 60.5,220.5C 40.8333,220.5 21.1667,220.5 1.5,220.5C 1.21552,218.585 1.54885,216.919 2.5,215.5C 2.5,216.833 2.5,218.167 2.5,219.5C 21.8333,219.5 41.1667,219.5 60.5,219.5C 60.5,204.833 60.5,190.167 60.5,175.5C 72.5,175.5 84.5,175.5 96.5,175.5 Z"/></g>
<g><path style="opacity:0.994" fill="#288fde" d="M 1.5,220.5 C 21.1667,220.5 40.8333,220.5 60.5,220.5C 60.5,234.833 60.5,249.167 60.5,263.5C 44.8298,263.333 29.1631,263.5 13.5,264C 7.13581,265.873 2.46914,269.706 -0.5,275.5C -0.5,261.167 -0.5,246.833 -0.5,232.5C 0.293656,228.642 0.960323,224.642 1.5,220.5 Z"/></g>
<g><path style="opacity:1" fill="#65aa72" d="M 123.5,220.5 C 134.81,234.814 146.143,249.148 157.5,263.5C 169.482,264.499 181.482,264.832 193.5,264.5C 193.667,285.169 193.5,305.836 193,326.5C 178.667,346.5 164.333,366.5 150,386.5C 149.501,392.491 149.334,398.491 149.5,404.5C 134.833,404.5 120.167,404.5 105.5,404.5C 105.831,380.994 105.498,357.661 104.5,334.5C 97.4819,328.152 90.1485,322.152 82.5,316.5C 75.8333,310.833 69.1667,305.167 62.5,299.5C 75.8935,299.925 89.2269,299.425 102.5,298C 114.383,292.018 117.217,283.184 111,271.5C 108.736,268.567 105.902,266.4 102.5,265C 88.9066,263.554 75.24,263.054 61.5,263.5C 61.5,249.167 61.5,234.833 61.5,220.5C 82.1667,220.5 102.833,220.5 123.5,220.5 Z"/></g>
<g><path style="opacity:1" fill="#65aa73" d="M 252.5,228.5 C 292.839,228.167 333.172,228.5 373.5,229.5C 358.726,260.073 340.226,288.073 318,313.5C 317.832,290.996 317.332,268.663 316.5,246.5C 298.83,246.667 281.164,246.5 263.5,246C 259.582,240.265 255.916,234.432 252.5,228.5 Z"/></g>
<g><path style="opacity:1" fill="#ced6dd" d="M 443.5,246.5 C 462.555,246.051 481.555,246.551 500.5,248C 512.705,256.85 513.705,266.85 503.5,278C 501.283,279.275 498.949,280.275 496.5,281C 478.101,281.96 459.768,281.627 441.5,280C 431.266,273.799 428.766,265.299 434,254.5C 436.772,251.217 439.939,248.55 443.5,246.5 Z"/></g>
<g><path style="opacity:1" fill="#cdd6dd" d="M 60.5,263.5 C 60.8333,263.5 61.1667,263.5 61.5,263.5C 75.24,263.054 88.9066,263.554 102.5,265C 105.902,266.4 108.736,268.567 111,271.5C 117.217,283.184 114.383,292.018 102.5,298C 89.2269,299.425 75.8935,299.925 62.5,299.5C 46.1633,299.667 29.8299,299.5 13.5,299C 8.55034,297.371 4.55034,294.538 1.5,290.5C 0.833333,289.5 0.166667,288.5 -0.5,287.5C -0.5,283.5 -0.5,279.5 -0.5,275.5C 2.46914,269.706 7.13581,265.873 13.5,264C 29.1631,263.5 44.8298,263.333 60.5,263.5 Z"/></g>
<g><path style="opacity:1" fill="#2178b8" d="M 1.5,290.5 C 4.55034,294.538 8.55034,297.371 13.5,299C 29.8299,299.5 46.1633,299.667 62.5,299.5C 69.1667,305.167 75.8333,310.833 82.5,316.5C 58.831,316.667 35.1643,316.5 11.5,316C 9.59321,314.878 7.59321,314.045 5.5,313.5C 3.84354,305.895 2.51021,298.228 1.5,290.5 Z"/></g>
<g><path style="opacity:0.996" fill="#288fdd" d="M 5.5,313.5 C 7.59321,314.045 9.59321,314.878 11.5,316C 35.1643,316.5 58.831,316.667 82.5,316.5C 90.1485,322.152 97.4819,328.152 104.5,334.5C 104.5,357.833 104.5,381.167 104.5,404.5C 88.9909,404.17 73.6576,404.504 58.5,405.5C 55.4061,406.213 52.4061,407.213 49.5,408.5C 28.6764,379.843 14.0097,348.177 5.5,313.5 Z"/></g>
<g><path style="opacity:1" fill="#287bba" d="M 316.5,315.5 C 316.5,327.833 316.5,340.167 316.5,352.5C 293.5,352.5 270.5,352.5 247.5,352.5C 258.659,351.669 269.993,351.169 281.5,351C 294.065,339.936 305.732,328.102 316.5,315.5 Z"/></g>
<g><path style="opacity:1" fill="#4c9dca" d="M 104.5,334.5 C 105.498,357.661 105.831,380.994 105.5,404.5C 90.0089,405.496 74.3422,405.83 58.5,405.5C 73.6576,404.504 88.9909,404.17 104.5,404.5C 104.5,381.167 104.5,357.833 104.5,334.5 Z"/></g>
<g><path style="opacity:0.999" fill="#cdd6dd" d="M 247.5,352.5 C 270.5,352.5 293.5,352.5 316.5,352.5C 328.5,352.5 340.5,352.5 352.5,352.5C 395.168,352.333 437.835,352.5 480.5,353C 484.229,354.537 487.895,356.037 491.5,357.5C 498.47,366.933 499.303,376.933 494,387.5C 487.598,395.136 479.432,398.136 469.5,396.5C 395.166,396.667 320.833,396.5 246.5,396C 238.478,393.803 232.811,388.969 229.5,381.5C 226.638,366.209 232.638,356.543 247.5,352.5 Z"/></g>
<g><path style="opacity:0.995" fill="#2178b8" d="M 229.5,381.5 C 232.811,388.969 238.478,393.803 246.5,396C 320.833,396.5 395.166,396.667 469.5,396.5C 428.95,457.139 372.617,494.305 300.5,508C 292.355,509.182 284.355,510.348 276.5,511.5C 262.5,511.5 248.5,511.5 234.5,511.5C 174.212,505.684 122.212,482.017 78.5,440.5C 114.835,440.667 151.168,440.5 187.5,440C 198.357,436.822 203.19,429.655 202,418.5C 200.569,414.626 198.403,411.293 195.5,408.5C 206.3,402.933 216.966,397.1 227.5,391C 229.34,388.174 230.006,385.007 229.5,381.5 Z"/></g>
<g><path style="opacity:0.998" fill="#cdd5dd" d="M 105.5,404.5 C 120.167,404.5 134.833,404.5 149.5,404.5C 162.66,405.331 175.994,405.831 189.5,406C 191.641,406.573 193.641,407.406 195.5,408.5C 198.403,411.293 200.569,414.626 202,418.5C 203.19,429.655 198.357,436.822 187.5,440C 151.168,440.5 114.835,440.667 78.5,440.5C 70.8261,440.666 63.1594,440.5 55.5,440C 45.0119,435.58 41.1785,427.746 44,416.5C 45.2734,413.403 47.1067,410.736 49.5,408.5C 52.4061,407.213 55.4061,406.213 58.5,405.5C 74.3422,405.83 90.0089,405.496 105.5,404.5 Z"/></g>
<g><path style="opacity:1" fill="#cdd6dd" d="M 283.5,440.5 C 309.835,440.333 336.169,440.5 362.5,441C 378.482,448.462 382.315,459.962 374,475.5C 370.16,480.004 365.327,482.838 359.5,484C 335.167,484.667 310.833,484.667 286.5,484C 268.664,477.171 264.164,465.337 273,448.5C 276.299,445.449 279.799,442.782 283.5,440.5 Z"/></g>
</svg>
