<?xml version="1.0" encoding="UTF-8"?>
<!DOCTYPE svg PUBLIC "-//W3C//DTD SVG 1.1//EN" "http://www.w3.org/Graphics/SVG/1.1/DTD/svg11.dtd">
<svg xmlns="http://www.w3.org/2000/svg" version="1.1" width="512px" height="512px" style="shape-rendering:geometricPrecision; text-rendering:geometricPrecision; image-rendering:optimizeQuality; fill-rule:evenodd; clip-rule:evenodd" xmlns:xlink="http://www.w3.org/1999/xlink">
<g><path style="opacity:0.989" fill="#e38700" d="M 234.5,-0.5 C 248.167,-0.5 261.833,-0.5 275.5,-0.5C 319.623,3.59733 360.29,17.764 397.5,42C 402.269,45.0395 406.603,48.5395 410.5,52.5C 306.833,52.5 203.167,52.5 99.5,52.5C 129.194,28.7418 162.861,12.9084 200.5,5C 211.924,2.82312 223.257,0.989786 234.5,-0.5 Z"/></g>
<g><path style="opacity:1" fill="#d98200" d="M 99.5,52.5 C 203.167,52.5 306.833,52.5 410.5,52.5C 418.058,57.4499 425.058,63.1166 431.5,69.5C 425.591,70.4553 419.591,70.7886 413.5,70.5C 301.999,70.8328 190.665,70.4995 79.5,69.5C 81.6281,66.8697 83.9614,64.3697 86.5,62C 90.5376,58.3258 94.8709,55.1591 99.5,52.5 Z"/></g>
<g><path style="opacity:0.999" fill="#f09c22" d="M 79.5,69.5 C 190.665,70.4995 301.999,70.8328 413.5,70.5C 412.88,87.9339 411.213,105.267 408.5,122.5C 284.5,122.5 160.5,122.5 36.5,122.5C 47.7204,102.442 62.0537,84.7755 79.5,69.5 Z"/></g>
<g><path style="opacity:0.997" fill="#e5931a" d="M 431.5,69.5 C 448.869,85.1894 463.203,103.189 474.5,123.5C 328.167,123.5 181.833,123.5 35.5,123.5C 35.5,122.833 35.8333,122.5 36.5,122.5C 160.5,122.5 284.5,122.5 408.5,122.5C 411.213,105.267 412.88,87.9339 413.5,70.5C 419.591,70.7886 425.591,70.4553 431.5,69.5 Z"/></g>
<g><path style="opacity:1" fill="#d98200" d="M 35.5,123.5 C 181.833,123.5 328.167,123.5 474.5,123.5C 477.335,127.164 479.668,131.164 481.5,135.5C 481.421,136.93 481.754,138.264 482.5,139.5C 456.509,140.5 430.509,140.833 404.5,140.5C 278.5,140.5 152.5,140.5 26.5,140.5C 28.7232,134.385 31.7232,128.719 35.5,123.5 Z"/></g>
<g><path style="opacity:1" fill="#f3af4b" d="M 26.5,140.5 C 152.5,140.5 278.5,140.5 404.5,140.5C 404.737,141.791 404.404,142.791 403.5,143.5C 278.003,141.834 152.337,140.834 26.5,140.5 Z"/></g>
<g><path style="opacity:0.998" fill="#e5931b" d="M 481.5,135.5 C 490.356,151.224 497.023,167.89 501.5,185.5C 500.927,182.241 498.927,180.408 495.5,180C 480.833,179.333 466.167,179.333 451.5,180C 431.198,183.384 410.865,186.55 390.5,189.5C 396.05,174.516 400.383,159.183 403.5,143.5C 404.404,142.791 404.737,141.791 404.5,140.5C 430.509,140.833 456.509,140.5 482.5,139.5C 481.754,138.264 481.421,136.93 481.5,135.5 Z"/></g>
<g><path style="opacity:1" fill="#f9b95d" d="M 26.5,140.5 C 152.337,140.834 278.003,141.834 403.5,143.5C 400.383,159.183 396.05,174.516 390.5,189.5C 377.514,190.494 364.514,190.661 351.5,190C 329.818,186.775 308.151,183.442 286.5,180C 265.739,177.645 245.072,178.311 224.5,182C 197.489,188.241 170.156,190.908 142.5,190C 116.528,186.116 90.5285,182.449 64.5,179C 46.0157,177.908 27.6824,179.075 9.5,182.5C 13.6222,167.783 19.2889,153.783 26.5,140.5 Z"/></g>
<g><path style="opacity:1" fill="#d98201" d="M 390.5,189.5 C 410.865,186.55 431.198,183.384 451.5,180C 466.167,179.333 480.833,179.333 495.5,180C 498.927,180.408 500.927,182.241 501.5,185.5C 501.784,189.85 502.784,194.017 504.5,198C 488.905,196.75 473.238,196.417 457.5,197C 431.436,201.402 405.436,205.236 379.5,208.5C 367.808,208.605 356.142,208.105 344.5,207C 325.153,204.093 305.82,201.093 286.5,198C 272.523,196.633 258.523,196.3 244.5,197C 226.149,199.892 207.816,202.892 189.5,206C 165.781,209.526 142.114,209.192 118.5,205C 87.8817,197.537 56.8817,195.203 25.5,198C 19.1239,199.012 12.7906,200.178 6.5,201.5C 5.70245,201.043 5.36912,200.376 5.5,199.5C 6.36676,193.701 7.70009,188.034 9.5,182.5C 27.6824,179.075 46.0157,177.908 64.5,179C 90.5285,182.449 116.528,186.116 142.5,190C 170.156,190.908 197.489,188.241 224.5,182C 245.072,178.311 265.739,177.645 286.5,180C 308.151,183.442 329.818,186.775 351.5,190C 364.514,190.661 377.514,190.494 390.5,189.5 Z"/></g>
<g><path style="opacity:0.999" fill="#ef9b22" d="M 379.5,208.5 C 380.5,208.5 381.5,208.5 382.5,208.5C 377.563,221.706 371.563,234.373 364.5,246.5C 242.833,246.5 121.167,246.5 -0.5,246.5C -0.5,241.833 -0.5,237.167 -0.5,232.5C 0.756182,221.376 2.75618,210.376 5.5,199.5C 5.36912,200.376 5.70245,201.043 6.5,201.5C 12.7906,200.178 19.1239,199.012 25.5,198C 56.8817,195.203 87.8817,197.537 118.5,205C 142.114,209.192 165.781,209.526 189.5,206C 207.816,202.892 226.149,199.892 244.5,197C 258.523,196.3 272.523,196.633 286.5,198C 305.82,201.093 325.153,204.093 344.5,207C 356.142,208.105 367.808,208.605 379.5,208.5 Z"/></g>
<g><path style="opacity:1" fill="#d98200" d="M -0.5,246.5 C 121.167,246.5 242.833,246.5 364.5,246.5C 413.167,246.5 461.833,246.5 510.5,246.5C 510.5,252.5 510.5,258.5 510.5,264.5C 458.5,264.5 406.5,264.5 354.5,264.5C 236.335,263.5 118.001,263.167 -0.5,263.5C -0.5,257.833 -0.5,252.167 -0.5,246.5 Z"/></g>
<g><path style="opacity:1" fill="#e99c2c" d="M -0.5,264.5 C -0.5,264.167 -0.5,263.833 -0.5,263.5C 118.001,263.167 236.335,263.5 354.5,264.5C 354.5,265.167 354.167,265.5 353.5,265.5C 235.668,264.5 117.668,264.167 -0.5,264.5 Z"/></g>
<g><path style="opacity:0.999" fill="#f9b95d" d="M -0.5,264.5 C 117.668,264.167 235.668,264.5 353.5,265.5C 348.443,274.062 342.777,282.229 336.5,290C 330.984,290.173 325.651,290.673 320.5,291.5C 302.593,292.715 285.26,296.548 268.5,303C 258.246,305.154 247.912,306.654 237.5,307.5C 159.833,307.5 82.1667,307.5 4.5,307.5C 2.54057,297.759 0.873905,288.092 -0.5,278.5C -0.5,273.833 -0.5,269.167 -0.5,264.5 Z"/></g>
<g><path style="opacity:1" fill="#d98200" d="M 320.5,291.5 C 339.397,290.405 358.064,291.905 376.5,296C 391.511,301.068 406.844,304.735 422.5,307C 449.809,308.396 477.143,308.896 504.5,308.5C 504.02,314.052 502.686,319.386 500.5,324.5C 472.149,325.911 443.816,325.744 415.5,324C 399.47,321.409 383.803,317.409 368.5,312C 351.475,308.598 334.475,307.765 317.5,309.5C 303.362,310.744 289.696,313.91 276.5,319C 266.289,321.642 255.956,323.642 245.5,325C 206.167,325.167 166.833,325.333 127.5,325.5C 87.6217,325.494 47.9551,324.828 8.5,323.5C 6.8674,319.341 5.8674,315.008 5.5,310.5C 82.6613,308.834 159.995,307.834 237.5,307.5C 247.912,306.654 258.246,305.154 268.5,303C 285.26,296.548 302.593,292.715 320.5,291.5 Z"/></g>
<g><path style="opacity:1" fill="#eca337" d="M 4.5,307.5 C 82.1667,307.5 159.833,307.5 237.5,307.5C 159.995,307.834 82.6613,308.834 5.5,310.5C 4.59603,309.791 4.26269,308.791 4.5,307.5 Z"/></g>
<g><path style="opacity:0.998" fill="#e5931b" d="M 501.5,185.5 C 506.632,202.162 509.966,219.162 511.5,236.5C 511.5,249.5 511.5,262.5 511.5,275.5C 499.947,376.876 447.947,449.043 355.5,492C 330.012,502.456 303.678,508.956 276.5,511.5C 262.5,511.5 248.5,511.5 234.5,511.5C 176.246,506.033 125.579,483.699 82.5,444.5C 88.1553,443.505 93.822,442.338 99.5,441C 92.5079,440.5 85.5079,440.334 78.5,440.5C 77.5,440.167 76.8333,439.5 76.5,438.5C 85.4534,439.279 94.4534,439.779 103.5,440C 149.5,440.333 195.5,440.667 241.5,441C 258.016,442.463 274.016,446.129 289.5,452C 313.955,458.064 338.622,459.064 363.5,455C 379.351,451.603 395.018,447.603 410.5,443C 417.488,441.918 424.488,440.918 431.5,440C 437.199,434.635 442.533,428.969 447.5,423C 436.604,422.154 425.77,422.654 415,424.5C 396.069,428.608 377.236,433.108 358.5,438C 339.772,440.274 321.106,439.941 302.5,437C 283.168,430.828 263.501,426.162 243.5,423C 217.502,422.5 191.502,422.333 165.5,422.5C 179.985,416.26 194.318,409.427 208.5,402C 216.568,397.642 224.235,392.809 231.5,387.5C 243.104,386.768 253.771,383.268 263.5,377C 285.94,356.746 312.273,348.746 342.5,353C 358.12,354.202 371.953,359.702 384,369.5C 388.036,373.639 388.369,377.972 385,382.5C 376.676,389.17 367.176,393.337 356.5,395C 343.721,397.281 331.055,396.948 318.5,394C 315.274,392.894 312.607,391.061 310.5,388.5C 319.485,382.909 328.818,382.242 338.5,386.5C 341.421,381.659 344.088,376.659 346.5,371.5C 346.291,370.914 345.957,370.414 345.5,370C 329.474,364.291 314.14,365.625 299.5,374C 292.865,378.916 290.698,385.416 293,393.5C 294.002,397.164 295.836,400.331 298.5,403C 314.397,413.18 331.73,416.847 350.5,414C 366.918,411.953 381.918,406.286 395.5,397C 406.923,384.314 407.423,371.147 397,357.5C 387.556,348.358 376.39,342.192 363.5,339C 340.049,332.881 316.716,333.047 293.5,339.5C 302.789,330.207 311.789,320.54 320.5,310.5C 319.675,309.614 318.675,309.281 317.5,309.5C 334.475,307.765 351.475,308.598 368.5,312C 383.803,317.409 399.47,321.409 415.5,324C 443.816,325.744 472.149,325.911 500.5,324.5C 502.686,319.386 504.02,314.052 504.5,308.5C 477.143,308.896 449.809,308.396 422.5,307C 406.844,304.735 391.511,301.068 376.5,296C 358.064,291.905 339.397,290.405 320.5,291.5C 325.651,290.673 330.984,290.173 336.5,290C 342.777,282.229 348.443,274.062 353.5,265.5C 354.167,265.5 354.5,265.167 354.5,264.5C 406.5,264.5 458.5,264.5 510.5,264.5C 510.5,258.5 510.5,252.5 510.5,246.5C 461.833,246.5 413.167,246.5 364.5,246.5C 371.563,234.373 377.563,221.706 382.5,208.5C 381.5,208.5 380.5,208.5 379.5,208.5C 405.436,205.236 431.436,201.402 457.5,197C 473.238,196.417 488.905,196.75 504.5,198C 502.784,194.017 501.784,189.85 501.5,185.5 Z"/></g>
<g><path style="opacity:0.999" fill="#ef9b22" d="M 317.5,309.5 C 318.675,309.281 319.675,309.614 320.5,310.5C 311.789,320.54 302.789,330.207 293.5,339.5C 277.996,344.248 264.329,352.082 252.5,363C 247.581,366.127 242.248,368.127 236.5,369C 166.501,369.5 96.5008,369.667 26.5,369.5C 18.3585,355.088 12.3585,339.755 8.5,323.5C 47.9551,324.828 87.6217,325.494 127.5,325.5C 166.833,325.333 206.167,325.167 245.5,325C 255.956,323.642 266.289,321.642 276.5,319C 289.696,313.91 303.362,310.744 317.5,309.5 Z"/></g>
<g><path style="opacity:1" fill="#d98200" d="M 231.5,387.5 C 166.167,387.5 100.833,387.5 35.5,387.5C 31.975,381.783 28.975,375.783 26.5,369.5C 96.5008,369.667 166.501,369.5 236.5,369C 242.248,368.127 247.581,366.127 252.5,363C 264.329,352.082 277.996,344.248 293.5,339.5C 316.716,333.047 340.049,332.881 363.5,339C 376.39,342.192 387.556,348.358 397,357.5C 407.423,371.147 406.923,384.314 395.5,397C 381.918,406.286 366.918,411.953 350.5,414C 331.73,416.847 314.397,413.18 298.5,403C 295.836,400.331 294.002,397.164 293,393.5C 290.698,385.416 292.865,378.916 299.5,374C 314.14,365.625 329.474,364.291 345.5,370C 345.957,370.414 346.291,370.914 346.5,371.5C 344.088,376.659 341.421,381.659 338.5,386.5C 328.818,382.242 319.485,382.909 310.5,388.5C 312.607,391.061 315.274,392.894 318.5,394C 331.055,396.948 343.721,397.281 356.5,395C 367.176,393.337 376.676,389.17 385,382.5C 388.369,377.972 388.036,373.639 384,369.5C 371.953,359.702 358.12,354.202 342.5,353C 312.273,348.746 285.94,356.746 263.5,377C 253.771,383.268 243.104,386.768 231.5,387.5 Z"/></g>
<g><path style="opacity:0.998" fill="#ef9b22" d="M 35.5,387.5 C 100.833,387.5 166.167,387.5 231.5,387.5C 224.235,392.809 216.568,397.642 208.5,402C 194.318,409.427 179.985,416.26 165.5,422.5C 130.996,422.168 96.6626,422.502 62.5,423.5C 52.0518,412.612 43.0518,400.612 35.5,387.5 Z"/></g>
<g><path style="opacity:1" fill="#d98200" d="M 165.5,422.5 C 191.502,422.333 217.502,422.5 243.5,423C 263.501,426.162 283.168,430.828 302.5,437C 321.106,439.941 339.772,440.274 358.5,438C 377.236,433.108 396.069,428.608 415,424.5C 425.77,422.654 436.604,422.154 447.5,423C 442.533,428.969 437.199,434.635 431.5,440C 424.488,440.918 417.488,441.918 410.5,443C 395.018,447.603 379.351,451.603 363.5,455C 338.622,459.064 313.955,458.064 289.5,452C 274.016,446.129 258.016,442.463 241.5,441C 195.5,440.667 149.5,440.333 103.5,440C 94.4534,439.779 85.4534,439.279 76.5,438.5C 71.1275,434.129 66.4608,429.129 62.5,423.5C 96.6626,422.502 130.996,422.168 165.5,422.5 Z"/></g>
<g><path style="opacity:0.979" fill="#f9b85c" d="M 78.5,440.5 C 85.5079,440.334 92.5079,440.5 99.5,441C 93.822,442.338 88.1553,443.505 82.5,444.5C 80.8333,443.5 79.5,442.167 78.5,440.5 Z"/></g>
</svg>
