<?xml version="1.0" encoding="UTF-8"?>
<!DOCTYPE svg PUBLIC "-//W3C//DTD SVG 1.1//EN" "http://www.w3.org/Graphics/SVG/1.1/DTD/svg11.dtd">
<svg xmlns="http://www.w3.org/2000/svg" version="1.1" width="512px" height="512px" style="shape-rendering:geometricPrecision; text-rendering:geometricPrecision; image-rendering:optimizeQuality; fill-rule:evenodd; clip-rule:evenodd" xmlns:xlink="http://www.w3.org/1999/xlink">
<g><path style="opacity:0.995" fill="#ef4427" d="M 234.5,-0.5 C 248.167,-0.5 261.833,-0.5 275.5,-0.5C 324.03,3.93212 368.03,20.4321 407.5,49C 410.288,50.7186 412.621,52.8852 414.5,55.5C 413.319,68.9863 412.652,82.653 412.5,96.5C 371.165,96.6667 329.832,96.5 288.5,96C 267.459,92.4297 247.792,85.0964 229.5,74C 195.419,59.5722 160.753,57.9055 125.5,69C 111.5,75.3333 97.5,81.6667 83.5,88C 74.428,91.3805 65.0946,93.5471 55.5,94.5C 101.962,38.4298 161.629,6.76313 234.5,-0.5 Z"/></g>
<g><path style="opacity:0.996" fill="#dc3519" d="M 414.5,55.5 C 430.833,67.1667 444.833,81.1667 456.5,97.5C 441.912,96.5174 427.245,96.184 412.5,96.5C 412.652,82.653 413.319,68.9863 414.5,55.5 Z"/></g>
<g><path style="opacity:1" fill="#c23017" d="M 412.5,96.5 C 427.245,96.184 441.912,96.5174 456.5,97.5C 460.897,101.959 464.564,106.959 467.5,112.5C 448.529,114.488 429.196,115.154 409.5,114.5C 367.475,114.949 325.475,114.449 283.5,113C 275.105,111.305 266.772,109.305 258.5,107C 242.068,99.117 225.401,91.7837 208.5,85C 184.6,78.0679 160.6,77.7345 136.5,84C 118.5,91.6667 100.5,99.3333 82.5,107C 69.5888,110.939 56.5888,112.439 43.5,111.5C 46.7623,105.307 50.7623,99.6405 55.5,94.5C 65.0946,93.5471 74.428,91.3805 83.5,88C 97.5,81.6667 111.5,75.3333 125.5,69C 160.753,57.9055 195.419,59.5722 229.5,74C 247.792,85.0964 267.459,92.4297 288.5,96C 329.832,96.5 371.165,96.6667 412.5,96.5 Z"/></g>
<g><path style="opacity:0.999" fill="#ef4427" d="M 409.5,114.5 C 407.653,129.071 404.653,143.404 400.5,157.5C 353.771,143.321 308.771,147.488 265.5,170C 251.949,178.22 238.949,187.22 226.5,197C 206.694,208.713 185.361,216.047 162.5,219C 108.834,219.5 55.1677,219.667 1.5,219.5C 7.0881,180.043 21.0881,144.043 43.5,111.5C 56.5888,112.439 69.5888,110.939 82.5,107C 100.5,99.3333 118.5,91.6667 136.5,84C 160.6,77.7345 184.6,78.0679 208.5,85C 225.401,91.7837 242.068,99.117 258.5,107C 266.772,109.305 275.105,111.305 283.5,113C 325.475,114.449 367.475,114.949 409.5,114.5 Z"/></g>
<g><path style="opacity:1" fill="#c23017" d="M 159.5,105.5 C 187.422,104.503 201.589,117.836 202,145.5C 196.183,167.966 181.683,177.799 158.5,175C 137.471,167.451 128.971,152.618 133,130.5C 137.522,117.475 146.356,109.141 159.5,105.5 Z"/></g>
<g><path style="opacity:1" fill="#ef4427" d="M 160.5,123.5 C 177.326,121.498 185.16,128.831 184,145.5C 178.081,158.214 168.914,161.381 156.5,155C 149.735,148.774 147.902,141.274 151,132.5C 153.406,128.592 156.572,125.592 160.5,123.5 Z"/></g>
<g><path style="opacity:1" fill="#c23017" d="M 400.5,157.5 C 413.054,161.742 425.054,167.242 436.5,174C 449.326,183.247 462.326,192.247 475.5,201C 485.651,206.579 496.317,210.745 507.5,213.5C 507.886,219.534 508.553,225.534 509.5,231.5C 491.548,228.458 474.882,221.958 459.5,212C 448.833,204.333 438.167,196.667 427.5,189C 417.194,183.347 406.528,178.513 395.5,174.5C 337.553,158.374 285.887,169.874 240.5,209C 216.078,224.696 189.412,234.03 160.5,237C 107.168,237.5 53.8344,237.667 0.5,237.5C 0.5,235.833 0.5,234.167 0.5,232.5C 0.371756,228.119 0.70509,223.785 1.5,219.5C 55.1677,219.667 108.834,219.5 162.5,219C 185.361,216.047 206.694,208.713 226.5,197C 238.949,187.22 251.949,178.22 265.5,170C 308.771,147.488 353.771,143.321 400.5,157.5 Z"/></g>
<g><path style="opacity:1" fill="#ef4427" d="M 395.5,174.5 C 387.301,200.563 376.635,225.563 363.5,249.5C 336.937,242.915 312.27,247.081 289.5,262C 280.125,270.377 270.458,278.377 260.5,286C 248.007,292.942 234.673,297.276 220.5,299C 147.999,299.167 75.6655,299.667 3.5,300.5C 1.88753,293.211 0.554197,285.878 -0.5,278.5C -0.5,263.167 -0.5,247.833 -0.5,232.5C -0.166667,232.5 0.166667,232.5 0.5,232.5C 0.5,234.167 0.5,235.833 0.5,237.5C 53.8344,237.667 107.168,237.5 160.5,237C 189.412,234.03 216.078,224.696 240.5,209C 285.887,169.874 337.553,158.374 395.5,174.5 Z"/></g>
<g><path style="opacity:0.998" fill="#db3419" d="M 467.5,112.5 C 493.078,149.896 507.744,191.229 511.5,236.5C 511.5,249.5 511.5,262.5 511.5,275.5C 508.498,307.521 500.165,338.187 486.5,367.5C 485.833,367.5 485.167,367.5 484.5,367.5C 486.927,362.722 489.261,357.889 491.5,353C 449.102,347.223 413.102,359.556 383.5,390C 363.86,404.442 342.193,408.442 318.5,402C 312.713,399.606 307.046,396.94 301.5,394C 293.538,387.706 285.871,381.04 278.5,374C 273.436,370.809 268.436,367.642 263.5,364.5C 272.019,359.162 279.852,352.828 287,345.5C 287.483,344.552 287.649,343.552 287.5,342.5C 296.276,375.908 317.942,390.408 352.5,386C 384.93,374.319 397.43,351.486 390,317.5C 381.689,296.369 366.189,284.369 343.5,281.5C 346.833,276.167 350.167,270.833 353.5,265.5C 361.562,267.194 369.228,270.028 376.5,274C 385.46,280.958 394.127,288.291 402.5,296C 417.27,306.371 433.603,313.038 451.5,316C 468.83,316.5 486.163,316.667 503.5,316.5C 504.823,310.895 505.823,305.229 506.5,299.5C 489.83,299.667 473.163,299.5 456.5,299C 432.058,295.525 411.725,284.525 395.5,266C 385.733,258.618 375.067,253.118 363.5,249.5C 376.635,225.563 387.301,200.563 395.5,174.5C 406.528,178.513 417.194,183.347 427.5,189C 438.167,196.667 448.833,204.333 459.5,212C 474.882,221.958 491.548,228.458 509.5,231.5C 508.553,225.534 507.886,219.534 507.5,213.5C 496.317,210.745 485.651,206.579 475.5,201C 462.326,192.247 449.326,183.247 436.5,174C 425.054,167.242 413.054,161.742 400.5,157.5C 404.653,143.404 407.653,129.071 409.5,114.5C 429.196,115.154 448.529,114.488 467.5,112.5 Z"/></g>
<g><path style="opacity:1" fill="#c23017" d="M 363.5,249.5 C 375.067,253.118 385.733,258.618 395.5,266C 411.725,284.525 432.058,295.525 456.5,299C 473.163,299.5 489.83,299.667 506.5,299.5C 505.823,305.229 504.823,310.895 503.5,316.5C 486.163,316.667 468.83,316.5 451.5,316C 433.603,313.038 417.27,306.371 402.5,296C 394.127,288.291 385.46,280.958 376.5,274C 369.228,270.028 361.562,267.194 353.5,265.5C 324.853,260.993 301.186,269.827 282.5,292C 266.284,304.603 247.95,312.603 227.5,316C 153.834,316.5 80.1674,316.667 6.5,316.5C 4.87124,311.312 3.87124,305.978 3.5,300.5C 75.6655,299.667 147.999,299.167 220.5,299C 234.673,297.276 248.007,292.942 260.5,286C 270.458,278.377 280.125,270.377 289.5,262C 312.27,247.081 336.937,242.915 363.5,249.5 Z"/></g>
<g><path style="opacity:0.999" fill="#ef4427" d="M 353.5,265.5 C 350.167,270.833 346.833,276.167 343.5,281.5C 316.428,281.449 298.261,294.115 289,319.5C 287.644,327.095 287.144,334.762 287.5,342.5C 287.649,343.552 287.483,344.552 287,345.5C 279.852,352.828 272.019,359.162 263.5,364.5C 249.005,357.376 233.672,353.376 217.5,352.5C 151.167,351.167 84.8333,351.167 18.5,352.5C 13.1302,341.057 9.13018,329.057 6.5,316.5C 80.1674,316.667 153.834,316.5 227.5,316C 247.95,312.603 266.284,304.603 282.5,292C 301.186,269.827 324.853,260.993 353.5,265.5 Z"/></g>
<g><path style="opacity:1" fill="#c23017" d="M 343.5,281.5 C 366.189,284.369 381.689,296.369 390,317.5C 397.43,351.486 384.93,374.319 352.5,386C 317.942,390.408 296.276,375.908 287.5,342.5C 287.144,334.762 287.644,327.095 289,319.5C 298.261,294.115 316.428,281.449 343.5,281.5 Z"/></g>
<g><path style="opacity:1" fill="#db3419" d="M 306.5,323.5 C 306.369,324.239 306.536,324.906 307,325.5C 314.109,318.235 320.609,310.568 326.5,302.5C 337.746,297.975 348.746,298.809 359.5,305C 373.375,315.627 377.875,329.461 373,346.5C 364.933,364.289 351.1,371.789 331.5,369C 309.914,360.989 301.581,345.822 306.5,323.5 Z"/></g>
<g><path style="opacity:1" fill="#ed4326" d="M 326.5,302.5 C 320.609,310.568 314.109,318.235 307,325.5C 306.536,324.906 306.369,324.239 306.5,323.5C 309.767,313.234 316.433,306.234 326.5,302.5 Z"/></g>
<g><path style="opacity:1" fill="#e13e22" d="M 217.5,352.5 C 151.158,351.837 85.1582,352.503 19.5,354.5C 18.6618,354.158 18.3284,353.492 18.5,352.5C 84.8333,351.167 151.167,351.167 217.5,352.5 Z"/></g>
<g><path style="opacity:1" fill="#c23017" d="M 217.5,352.5 C 233.672,353.376 249.005,357.376 263.5,364.5C 268.436,367.642 273.436,370.809 278.5,374C 285.871,381.04 293.538,387.706 301.5,394C 307.046,396.94 312.713,399.606 318.5,402C 342.193,408.442 363.86,404.442 383.5,390C 413.102,359.556 449.102,347.223 491.5,353C 489.261,357.889 486.927,362.722 484.5,367.5C 448.969,365.848 418.969,378.014 394.5,404C 363.752,425.414 331.419,428.081 297.5,412C 293.5,409.333 289.5,406.667 285.5,404C 274.632,392.292 261.966,383.125 247.5,376.5C 238.399,373.392 229.066,371.225 219.5,370C 154.834,369.5 90.1675,369.333 25.5,369.5C 23.2194,364.606 21.2194,359.606 19.5,354.5C 85.1582,352.503 151.158,351.837 217.5,352.5 Z"/></g>
<g><path style="opacity:0.996" fill="#db3519" d="M 484.5,367.5 C 485.167,367.5 485.833,367.5 486.5,367.5C 445.836,446.029 381.836,493.196 294.5,509C 288.535,509.963 282.535,510.463 276.5,510.5C 293.563,500.707 300.73,486.04 298,466.5C 292.104,452.271 281.937,442.437 267.5,437C 241.122,427.513 216.122,430.179 192.5,445C 172.254,461.709 170.254,480.376 186.5,501C 188.723,501.566 190.723,502.4 192.5,503.5C 151.099,493.304 114.765,473.971 83.5,445.5C 138.981,435.11 190.648,414.61 238.5,384C 241.69,381.636 244.69,379.136 247.5,376.5C 261.966,383.125 274.632,392.292 285.5,404C 289.5,406.667 293.5,409.333 297.5,412C 331.419,428.081 363.752,425.414 394.5,404C 418.969,378.014 448.969,365.848 484.5,367.5 Z"/></g>
<g><path style="opacity:0.998" fill="#ef4427" d="M 25.5,369.5 C 90.1675,369.333 154.834,369.5 219.5,370C 229.066,371.225 238.399,373.392 247.5,376.5C 244.69,379.136 241.69,381.636 238.5,384C 190.648,414.61 138.981,435.11 83.5,445.5C 59.3273,423.803 39.994,398.469 25.5,369.5 Z"/></g>
<g><path style="opacity:1" fill="#c23017" d="M 276.5,510.5 C 254.754,511.024 233.087,510.024 211.5,507.5C 204.841,507.169 198.507,505.836 192.5,503.5C 190.723,502.4 188.723,501.566 186.5,501C 170.254,480.376 172.254,461.709 192.5,445C 216.122,430.179 241.122,427.513 267.5,437C 281.937,442.437 292.104,452.271 298,466.5C 300.73,486.04 293.563,500.707 276.5,510.5 Z"/></g>
<g><path style="opacity:1" fill="#db3418" d="M 224.5,449.5 C 239.972,447.636 254.639,450.136 268.5,457C 284.882,468.288 285.549,480.288 270.5,493C 253.341,501.914 235.341,503.914 216.5,499C 209.611,496.307 203.444,492.473 198,487.5C 190.413,475.585 192.58,465.752 204.5,458C 210.889,454.3 217.556,451.466 224.5,449.5 Z"/></g>
<g><path style="opacity:0.888" fill="#d93419" d="M 211.5,507.5 C 233.087,510.024 254.754,511.024 276.5,510.5C 276.5,510.833 276.5,511.167 276.5,511.5C 262.5,511.5 248.5,511.5 234.5,511.5C 226.769,510.575 219.102,509.242 211.5,507.5 Z"/></g>
</svg>
