<?xml version="1.0" encoding="UTF-8"?>
<!DOCTYPE svg PUBLIC "-//W3C//DTD SVG 1.1//EN" "http://www.w3.org/Graphics/SVG/1.1/DTD/svg11.dtd">
<svg xmlns="http://www.w3.org/2000/svg" version="1.1" width="512px" height="512px" style="shape-rendering:geometricPrecision; text-rendering:geometricPrecision; image-rendering:optimizeQuality; fill-rule:evenodd; clip-rule:evenodd" xmlns:xlink="http://www.w3.org/1999/xlink">
<g><path style="opacity:0.999" fill="#c1c6ce" d="M 257.5,-0.5 C 263.5,-0.5 269.5,-0.5 275.5,-0.5C 309.321,2.55088 341.321,11.8842 371.5,27.5C 322.469,56.0152 280.302,92.6818 245,137.5C 232.276,155.225 219.943,173.225 208,191.5C 177.077,232.434 139.91,266.267 96.5,293C 70.1215,313.042 45.9549,335.542 24,360.5C 23.5172,361.448 23.3505,362.448 23.5,363.5C 16.1556,349.647 10.6556,334.98 7,319.5C 3.72295,305.495 1.22295,291.495 -0.5,277.5C -0.5,272.5 -0.5,267.5 -0.5,262.5C 9.64582,248.901 19.8125,235.235 30,221.5C 46.4511,200.815 64.6177,181.649 84.5,164C 106.202,146.81 127.535,129.144 148.5,111C 174.779,83.7269 199.946,55.5602 224,26.5C 234.487,16.4978 245.654,7.49778 257.5,-0.5 Z"/></g>
<g><path style="opacity:1" fill="#808a94" d="M 234.5,-0.5 C 242.167,-0.5 249.833,-0.5 257.5,-0.5C 245.654,7.49778 234.487,16.4978 224,26.5C 199.946,55.5602 174.779,83.7269 148.5,111C 127.535,129.144 106.202,146.81 84.5,164C 64.6177,181.649 46.4511,200.815 30,221.5C 19.8125,235.235 9.64582,248.901 -0.5,262.5C -0.5,252.5 -0.5,242.5 -0.5,232.5C 0.166667,232.5 0.5,232.167 0.5,231.5C 23.3918,199.764 49.7251,170.93 79.5,145C 106.774,125.073 132.274,102.906 156,78.5C 171.333,60.5 186.667,42.5 202,24.5C 210.084,16.5841 217.918,8.58408 225.5,0.5C 228.713,0.810002 231.713,0.476669 234.5,-0.5 Z"/></g>
<g><path style="opacity:0.995" fill="#c1c6ce" d="M 225.5,0.5 C 217.918,8.58408 210.084,16.5841 202,24.5C 186.667,42.5 171.333,60.5 156,78.5C 132.274,102.906 106.774,125.073 79.5,145C 49.7251,170.93 23.3918,199.764 0.5,231.5C 10.3932,145.192 52.0598,79.3588 125.5,34C 156.595,16.1351 189.928,4.96839 225.5,0.5 Z"/></g>
<g><path style="opacity:1" fill="#808a94" d="M 371.5,27.5 C 377.83,30.3296 383.83,33.663 389.5,37.5C 337.941,65.5432 294.108,102.877 258,149.5C 247.275,164.56 236.942,179.894 227,195.5C 190.998,243.712 147.498,283.546 96.5,315C 72.3307,334.003 50.664,355.503 31.5,379.5C 27.7929,374.753 25.1263,369.419 23.5,363.5C 23.3505,362.448 23.5172,361.448 24,360.5C 45.9549,335.542 70.1215,313.042 96.5,293C 139.91,266.267 177.077,232.434 208,191.5C 219.943,173.225 232.276,155.225 245,137.5C 280.302,92.6818 322.469,56.0152 371.5,27.5 Z"/></g>
<g><path style="opacity:1" fill="#c1c6ce" d="M 389.5,37.5 C 395.641,41.0731 401.641,44.9064 407.5,49C 410.288,50.7186 412.621,52.8852 414.5,55.5C 413.866,80.6116 411.2,105.612 406.5,130.5C 403.5,130.5 400.5,130.5 397.5,130.5C 397.5,136.5 397.5,142.5 397.5,148.5C 399.167,148.5 400.833,148.5 402.5,148.5C 395.432,179.965 384.432,209.965 369.5,238.5C 360.982,246.512 351.982,254.012 342.5,261C 308.868,281.989 277.201,305.655 247.5,332C 219.381,358.508 194.715,387.675 173.5,419.5C 143.992,430.794 113.659,439.127 82.5,444.5C 61.8837,425.563 44.8837,403.897 31.5,379.5C 50.664,355.503 72.3307,334.003 96.5,315C 147.498,283.546 190.998,243.712 227,195.5C 236.942,179.894 247.275,164.56 258,149.5C 294.108,102.877 337.941,65.5432 389.5,37.5 Z"/></g>
<g><path style="opacity:1" fill="#b4bcc1" d="M 414.5,55.5 C 438.415,73.7462 458.082,95.7462 473.5,121.5C 472.312,120.316 471.145,120.316 470,121.5C 447.971,156.88 422.138,189.38 392.5,219C 385.235,226.109 377.568,232.609 369.5,238.5C 384.432,209.965 395.432,179.965 402.5,148.5C 406.5,148.5 410.5,148.5 414.5,148.5C 414.5,142.5 414.5,136.5 414.5,130.5C 411.833,130.5 409.167,130.5 406.5,130.5C 411.2,105.612 413.866,80.6116 414.5,55.5 Z"/></g>
<g><path style="opacity:1" fill="#808b95" d="M 185.5,104.5 C 191.5,104.5 197.5,104.5 203.5,104.5C 203.5,110.167 203.5,115.833 203.5,121.5C 197.5,121.5 191.5,121.5 185.5,121.5C 185.5,115.833 185.5,110.167 185.5,104.5 Z"/></g>
<g><path style="opacity:1" fill="#7f8a94" d="M 473.5,121.5 C 476.669,125.833 479.336,130.5 481.5,135.5C 444.082,195.251 396.416,245.251 338.5,285.5C 288.373,315.615 245.373,353.948 209.5,400.5C 204.111,406.917 198.945,413.584 194,420.5C 179.027,443.288 163.527,465.621 147.5,487.5C 142.516,485.674 137.849,483.341 133.5,480.5C 133.351,479.448 133.517,478.448 134,477.5C 147.388,458.286 160.554,438.952 173.5,419.5C 194.715,387.675 219.381,358.508 247.5,332C 277.201,305.655 308.868,281.989 342.5,261C 351.982,254.012 360.982,246.512 369.5,238.5C 377.568,232.609 385.235,226.109 392.5,219C 422.138,189.38 447.971,156.88 470,121.5C 471.145,120.316 472.312,120.316 473.5,121.5 Z"/></g>
<g><path style="opacity:1" fill="#808b95" d="M 406.5,130.5 C 409.167,130.5 411.833,130.5 414.5,130.5C 414.5,136.5 414.5,142.5 414.5,148.5C 410.5,148.5 406.5,148.5 402.5,148.5C 400.833,148.5 399.167,148.5 397.5,148.5C 397.5,142.5 397.5,136.5 397.5,130.5C 400.5,130.5 403.5,130.5 406.5,130.5 Z"/></g>
<g><path style="opacity:1" fill="#b4bcc1" d="M 481.5,135.5 C 497.044,163.471 506.377,193.471 509.5,225.5C 508.168,221.736 507.335,217.736 507,213.5C 463.925,247.907 425.592,286.907 392,330.5C 365.969,358.205 337.803,383.372 307.5,406C 273.192,436.193 243.192,470.026 217.5,507.5C 224.423,509.16 231.423,509.66 238.5,509C 259.504,477.982 284.17,449.982 312.5,425C 334.202,407.81 355.535,390.144 376.5,372C 402.113,345.393 426.613,317.893 450,289.5C 469.064,270.433 488.731,252.099 509,234.5C 509.183,231.635 509.683,228.969 510.5,226.5C 510.187,230.042 510.521,233.375 511.5,236.5C 511.5,249.5 511.5,262.5 511.5,275.5C 499.947,376.876 447.947,449.043 355.5,492C 330.012,502.456 303.678,508.956 276.5,511.5C 262.5,511.5 248.5,511.5 234.5,511.5C 204.082,508.645 175.082,500.645 147.5,487.5C 163.527,465.621 179.027,443.288 194,420.5C 198.945,413.584 204.111,406.917 209.5,400.5C 260.694,372.841 303.86,335.175 339,287.5C 339.692,286.563 339.525,285.897 338.5,285.5C 396.416,245.251 444.082,195.251 481.5,135.5 Z"/></g>
<g><path style="opacity:1" fill="#7f8a94" d="M 126.5,166.5 C 143.181,164.584 154.015,171.584 159,187.5C 158.997,209.834 147.83,220.001 125.5,218C 110.957,212.094 104.791,201.261 107,185.5C 110.121,175.544 116.621,169.21 126.5,166.5 Z"/></g>
<g><path style="opacity:1" fill="#7f8a94" d="M 300.5,175.5 C 306.167,175.5 311.833,175.5 317.5,175.5C 317.5,181.167 317.5,186.833 317.5,192.5C 311.833,192.5 306.167,192.5 300.5,192.5C 300.5,186.833 300.5,181.167 300.5,175.5 Z"/></g>
<g><path style="opacity:1" fill="#bfc4cc" d="M 129.5,183.5 C 137.986,183.151 141.82,187.151 141,195.5C 138.647,200.426 134.814,202.26 129.5,201C 124.845,198.103 123.345,193.937 125,188.5C 126.193,186.503 127.693,184.836 129.5,183.5 Z"/></g>
<g><path style="opacity:1" fill="#7e8a93" d="M 62.5,210.5 C 68.1667,210.5 73.8333,210.5 79.5,210.5C 79.5,216.167 79.5,221.833 79.5,227.5C 73.8333,227.5 68.1667,227.5 62.5,227.5C 62.5,221.833 62.5,216.167 62.5,210.5 Z"/></g>
<g><path style="opacity:1" fill="#7f8a94" d="M 509.5,225.5 C 510.167,225.5 510.5,225.833 510.5,226.5C 509.683,228.969 509.183,231.635 509,234.5C 488.731,252.099 469.064,270.433 450,289.5C 426.613,317.893 402.113,345.393 376.5,372C 355.535,390.144 334.202,407.81 312.5,425C 284.17,449.982 259.504,477.982 238.5,509C 231.423,509.66 224.423,509.16 217.5,507.5C 243.192,470.026 273.192,436.193 307.5,406C 337.803,383.372 365.969,358.205 392,330.5C 425.592,286.907 463.925,247.907 507,213.5C 507.335,217.736 508.168,221.736 509.5,225.5 Z"/></g>
<g><path style="opacity:1" fill="#7f8a94" d="M 194.5,263.5 C 216.357,260.888 230.857,269.888 238,290.5C 239.129,320.037 224.963,334.204 195.5,333C 171.024,323.543 163.191,306.376 172,281.5C 177.387,272.74 184.887,266.74 194.5,263.5 Z"/></g>
<g><path style="opacity:1" fill="#c1c6ce" d="M 198.5,280.5 C 216.013,280.839 222.846,289.506 219,306.5C 213.955,314.409 206.788,317.242 197.5,315C 185.565,308.633 182.731,299.466 189,287.5C 191.79,284.535 194.957,282.202 198.5,280.5 Z"/></g>
<g><path style="opacity:1" fill="#c1c6ce" d="M 338.5,285.5 C 339.525,285.897 339.692,286.563 339,287.5C 303.86,335.175 260.694,372.841 209.5,400.5C 245.373,353.948 288.373,315.615 338.5,285.5 Z"/></g>
<g><path style="opacity:1" fill="#818c95" d="M 335.5,315.5 C 341.5,315.5 347.5,315.5 353.5,315.5C 353.5,321.5 353.5,327.5 353.5,333.5C 347.5,333.5 341.5,333.5 335.5,333.5C 335.5,327.5 335.5,321.5 335.5,315.5 Z"/></g>
<g><path style="opacity:1" fill="#7e8a93" d="M 441.5,351.5 C 447.167,351.5 452.833,351.5 458.5,351.5C 458.5,357.167 458.5,362.833 458.5,368.5C 452.833,368.5 447.167,368.5 441.5,368.5C 441.5,362.833 441.5,357.167 441.5,351.5 Z"/></g>
<g><path style="opacity:1" fill="#818c96" d="M 123.5,403.5 C 129.5,403.5 135.5,403.5 141.5,403.5C 141.5,409.5 141.5,415.5 141.5,421.5C 135.5,421.5 129.5,421.5 123.5,421.5C 123.5,415.5 123.5,409.5 123.5,403.5 Z"/></g>
<g><path style="opacity:1" fill="#b5bcc2" d="M 173.5,419.5 C 160.554,438.952 147.388,458.286 134,477.5C 133.517,478.448 133.351,479.448 133.5,480.5C 114.831,470.825 97.8308,458.825 82.5,444.5C 113.659,439.127 143.992,430.794 173.5,419.5 Z"/></g>
<g><path style="opacity:1" fill="#818c95" d="M 326.5,447.5 C 332.5,447.5 338.5,447.5 344.5,447.5C 344.5,453.5 344.5,459.5 344.5,465.5C 338.5,465.5 332.5,465.5 326.5,465.5C 326.5,459.5 326.5,453.5 326.5,447.5 Z"/></g>
</svg>
