<?xml version="1.0" encoding="UTF-8"?>
<!DOCTYPE svg PUBLIC "-//W3C//DTD SVG 1.1//EN" "http://www.w3.org/Graphics/SVG/1.1/DTD/svg11.dtd">
<svg xmlns="http://www.w3.org/2000/svg" version="1.1" width="512px" height="512px" style="shape-rendering:geometricPrecision; text-rendering:geometricPrecision; image-rendering:optimizeQuality; fill-rule:evenodd; clip-rule:evenodd" xmlns:xlink="http://www.w3.org/1999/xlink">
<g><path style="opacity:0.994" fill="#278edd" d="M 234.5,-0.5 C 248.167,-0.5 261.833,-0.5 275.5,-0.5C 330.974,4.70815 379.974,25.2082 422.5,61C 424.373,62.7038 426.04,64.5372 427.5,66.5C 385.426,60.7685 343.426,61.2685 301.5,68C 255.053,79.3399 208.053,82.6732 160.5,78C 141.031,75.4394 121.697,72.1061 102.5,68C 95.854,67.1686 89.1874,66.6686 82.5,66.5C 125.553,27.3158 176.219,4.98244 234.5,-0.5 Z"/></g>
<g><path style="opacity:1" fill="#28669d" d="M 427.5,66.5 C 435.167,72.1667 441.833,78.8333 447.5,86.5C 446.378,87.1558 445.045,87.4892 443.5,87.5C 433.207,85.7913 422.873,84.458 412.5,83.5C 380.971,79.4707 349.305,79.6374 317.5,84C 296.455,87.4089 275.455,91.0756 254.5,95C 222.534,99.0465 190.534,99.3799 158.5,96C 136.083,92.8501 113.75,89.1834 91.5,85C 82.657,84.8296 73.9903,84.3296 65.5,83.5C 70.1667,76.8333 75.8333,71.1667 82.5,66.5C 89.1874,66.6686 95.854,67.1686 102.5,68C 121.697,72.1061 141.031,75.4394 160.5,78C 208.053,82.6732 255.053,79.3399 301.5,68C 343.426,61.2685 385.426,60.7685 427.5,66.5 Z"/></g>
<g><path style="opacity:0.999" fill="#288edd" d="M 412.5,83.5 C 411.421,100.64 409.254,117.64 406,134.5C 401.651,153.753 396.485,172.753 390.5,191.5C 386.5,191.5 382.5,191.5 378.5,191.5C 361.056,191.324 343.723,189.824 326.5,187C 299.592,181.485 272.592,176.485 245.5,172C 202.498,166.043 159.498,166.043 116.5,172C 80.1637,178.234 43.8303,184.401 7.5,190.5C 17.7571,149.635 37.0905,113.968 65.5,83.5C 73.9903,84.3296 82.657,84.8296 91.5,85C 113.75,89.1834 136.083,92.8501 158.5,96C 190.534,99.3799 222.534,99.0465 254.5,95C 275.455,91.0756 296.455,87.4089 317.5,84C 349.305,79.6374 380.971,79.4707 412.5,83.5 Z"/></g>
<g><path style="opacity:1" fill="#2382c7" d="M 412.5,83.5 C 422.873,84.458 433.207,85.7913 443.5,87.5C 445.045,87.4892 446.378,87.1558 447.5,86.5C 472.247,113.988 489.913,145.655 500.5,181.5C 460.062,189.687 419.396,193.02 378.5,191.5C 382.5,191.5 386.5,191.5 390.5,191.5C 396.485,172.753 401.651,153.753 406,134.5C 409.254,117.64 411.421,100.64 412.5,83.5 Z"/></g>
<g><path style="opacity:1" fill="#28669c" d="M 378.5,191.5 C 419.396,193.02 460.062,189.687 500.5,181.5C 501.945,184.937 502.945,188.603 503.5,192.5C 503.318,194.591 503.652,196.591 504.5,198.5C 464.329,207.322 423.662,211.322 382.5,210.5C 344.112,208.782 306.112,203.282 268.5,194C 221.074,185.21 173.408,183.543 125.5,189C 84.8283,195.881 44.1617,202.715 3.5,209.5C 4.07048,202.98 5.40381,196.646 7.5,190.5C 43.8303,184.401 80.1637,178.234 116.5,172C 159.498,166.043 202.498,166.043 245.5,172C 272.592,176.485 299.592,181.485 326.5,187C 343.723,189.824 361.056,191.324 378.5,191.5 Z"/></g>
<g><path style="opacity:0.999" fill="#288edd" d="M 382.5,210.5 C 370.213,239.093 354.88,265.76 336.5,290.5C 302.777,289.631 272.443,279.131 245.5,259C 202.779,235.91 158.113,231.244 111.5,245C 100.365,248.567 89.6984,253.233 79.5,259C 56.2801,276.104 30.2801,286.27 1.5,289.5C 0.973568,285.688 0.306901,282.021 -0.5,278.5C -0.5,263.167 -0.5,247.833 -0.5,232.5C 0.460706,224.777 1.79404,217.11 3.5,209.5C 44.1617,202.715 84.8283,195.881 125.5,189C 173.408,183.543 221.074,185.21 268.5,194C 306.112,203.282 344.112,208.782 382.5,210.5 Z"/></g>
<g><path style="opacity:1" fill="#27669c" d="M 336.5,290.5 C 393.845,290.259 451.178,290.926 508.5,292.5C 506.856,298.052 505.856,303.719 505.5,309.5C 444.123,309.443 382.79,308.776 321.5,307.5C 300.354,305.618 280.354,299.785 261.5,290C 243.84,277.17 224.507,267.503 203.5,261C 155.162,248.568 110.829,256.901 70.5,286C 49.9893,297.782 27.9893,304.616 4.5,306.5C 2.97966,301.052 1.97966,295.386 1.5,289.5C 30.2801,286.27 56.2801,276.104 79.5,259C 89.6984,253.233 100.365,248.567 111.5,245C 158.113,231.244 202.779,235.91 245.5,259C 272.443,279.131 302.777,289.631 336.5,290.5 Z"/></g>
<g><path style="opacity:0.999" fill="#288edd" d="M 321.5,307.5 C 321.649,308.552 321.483,309.552 321,310.5C 284.658,352.361 241.825,385.695 192.5,410.5C 161.988,416.515 132.321,413.682 103.5,402C 87.1667,393 70.8333,384 54.5,375C 45.8335,371.055 36.8335,368.222 27.5,366.5C 27.5,368.5 27.5,370.5 27.5,372.5C 16.2784,351.839 8.6117,329.839 4.5,306.5C 27.9893,304.616 49.9893,297.782 70.5,286C 110.829,256.901 155.162,248.568 203.5,261C 224.507,267.503 243.84,277.17 261.5,290C 280.354,299.785 300.354,305.618 321.5,307.5 Z"/></g>
<g><path style="opacity:1" fill="#2178b8" d="M 145.5,290.5 C 164.268,288.679 181.935,292.179 198.5,301C 220.921,315.246 225.421,333.746 212,356.5C 200.889,368.77 187.055,375.937 170.5,378C 145.212,381.727 123.379,374.894 105,357.5C 90.5877,334.643 94.7544,315.809 117.5,301C 126.467,296.182 135.8,292.682 145.5,290.5 Z"/></g>
<g><path style="opacity:0.998" fill="#2381c6" d="M 503.5,192.5 C 507.463,206.946 510.13,221.613 511.5,236.5C 511.5,249.5 511.5,262.5 511.5,275.5C 508.637,306.774 500.637,336.774 487.5,365.5C 486.833,365.5 486.5,365.167 486.5,364.5C 486.539,363.417 486.873,362.417 487.5,361.5C 460.333,361.167 433.167,360.833 406,360.5C 375.478,360.374 344.978,360.874 314.5,362C 293.174,365.22 273.174,372.22 254.5,383C 235.925,396.785 215.259,405.952 192.5,410.5C 241.825,385.695 284.658,352.361 321,310.5C 321.483,309.552 321.649,308.552 321.5,307.5C 382.79,308.776 444.123,309.443 505.5,309.5C 505.856,303.719 506.856,298.052 508.5,292.5C 451.178,290.926 393.845,290.259 336.5,290.5C 354.88,265.76 370.213,239.093 382.5,210.5C 423.662,211.322 464.329,207.322 504.5,198.5C 503.652,196.591 503.318,194.591 503.5,192.5 Z"/></g>
<g><path style="opacity:1" fill="#27669c" d="M 486.5,364.5 C 484.464,368.899 482.131,373.233 479.5,377.5C 428.837,378.333 378.17,378.833 327.5,379C 297.966,381.509 271.299,391.509 247.5,409C 212.819,428.503 175.819,435.336 136.5,429.5C 108.583,425.141 83.2497,414.641 60.5,398C 52.5779,393.418 44.2446,389.918 35.5,387.5C 32.5788,382.659 29.9121,377.659 27.5,372.5C 27.5,370.5 27.5,368.5 27.5,366.5C 36.8335,368.222 45.8335,371.055 54.5,375C 70.8333,384 87.1667,393 103.5,402C 132.321,413.682 161.988,416.515 192.5,410.5C 215.259,405.952 235.925,396.785 254.5,383C 273.174,372.22 293.174,365.22 314.5,362C 344.978,360.874 375.478,360.374 406,360.5C 433.167,360.833 460.333,361.167 487.5,361.5C 486.873,362.417 486.539,363.417 486.5,364.5 Z"/></g>
<g><path style="opacity:0.998" fill="#2381c6" d="M 486.5,364.5 C 486.5,365.167 486.833,365.5 487.5,365.5C 443.167,451.518 372.834,500.184 276.5,511.5C 262.5,511.5 248.5,511.5 234.5,511.5C 195.109,507.819 158.443,495.819 124.5,475.5C 211.501,475.667 298.501,475.5 385.5,475C 394.353,470.075 402.686,464.409 410.5,458C 306.666,457.167 202.999,457.334 99.5,458.5C 93.2413,454.539 87.5747,449.873 82.5,444.5C 101.435,441.266 120.102,436.766 138.5,431C 137.584,430.722 136.918,430.222 136.5,429.5C 175.819,435.336 212.819,428.503 247.5,409C 271.299,391.509 297.966,381.509 327.5,379C 378.17,378.833 428.837,378.333 479.5,377.5C 482.131,373.233 484.464,368.899 486.5,364.5 Z"/></g>
<g><path style="opacity:0.988" fill="#288edd" d="M 35.5,387.5 C 44.2446,389.918 52.5779,393.418 60.5,398C 83.2497,414.641 108.583,425.141 136.5,429.5C 136.918,430.222 137.584,430.722 138.5,431C 120.102,436.766 101.435,441.266 82.5,444.5C 64.2201,427.563 48.5534,408.563 35.5,387.5 Z"/></g>
<g><path style="opacity:1" fill="#27669c" d="M 124.5,475.5 C 115.639,470.572 107.305,464.906 99.5,458.5C 202.999,457.334 306.666,457.167 410.5,458C 402.686,464.409 394.353,470.075 385.5,475C 298.501,475.5 211.501,475.667 124.5,475.5 Z"/></g>
</svg>
