<?xml version="1.0" encoding="UTF-8"?>
<!DOCTYPE svg PUBLIC "-//W3C//DTD SVG 1.1//EN" "http://www.w3.org/Graphics/SVG/1.1/DTD/svg11.dtd">
<svg xmlns="http://www.w3.org/2000/svg" version="1.1" width="512px" height="512px" style="shape-rendering:geometricPrecision; text-rendering:geometricPrecision; image-rendering:optimizeQuality; fill-rule:evenodd; clip-rule:evenodd" xmlns:xlink="http://www.w3.org/1999/xlink">
<g><path style="opacity:1" fill="#f5ae45" d="M 410.5,-0.5 C 419.5,-0.5 428.5,-0.5 437.5,-0.5C 463.415,1.61918 483.749,13.2858 498.5,34.5C 480.128,39.0213 462.128,44.688 444.5,51.5C 427.062,44.0665 409.062,42.5665 390.5,47C 382.024,48.7022 373.69,50.8689 365.5,53.5C 347.422,45.1948 328.755,38.3615 309.5,33C 308.944,32.6174 308.611,32.1174 308.5,31.5C 340.77,14.9636 374.77,4.29696 410.5,-0.5 Z"/></g>
<g><path style="opacity:0.996" fill="#f5ad44" d="M 250.5,25.5 C 228.371,49.4584 207.538,74.4584 188,100.5C 169.837,126.823 152.17,153.49 135,180.5C 114.852,208.655 93.1855,235.655 70,261.5C 56.6314,274.701 43.4647,288.035 30.5,301.5C 15.6734,217.482 38.6734,145.649 99.5,86C 142.445,47.9505 192.779,27.7838 250.5,25.5 Z"/></g>
<g><path style="opacity:1" fill="#e38701" d="M 250.5,25.5 C 258.17,25.778 265.836,26.1114 273.5,26.5C 250.156,51.539 227.989,77.539 207,104.5C 185.504,135.489 164.504,166.822 144,198.5C 112.484,242.759 76.3172,283.092 35.5,319.5C 34.1667,316.167 32.8333,312.833 31.5,309.5C 31.1667,306.833 30.8333,304.167 30.5,301.5C 43.4647,288.035 56.6314,274.701 70,261.5C 93.1855,235.655 114.852,208.655 135,180.5C 152.17,153.49 169.837,126.823 188,100.5C 207.538,74.4584 228.371,49.4584 250.5,25.5 Z"/></g>
<g><path style="opacity:1" fill="#ef9b22" d="M 273.5,26.5 C 285.236,27.7004 296.903,29.3671 308.5,31.5C 308.611,32.1174 308.944,32.6174 309.5,33C 328.755,38.3615 347.422,45.1948 365.5,53.5C 365.5,53.8333 365.5,54.1667 365.5,54.5C 333.445,85.0539 302.612,116.721 273,149.5C 256.226,173.372 241.226,198.372 228,224.5C 202.36,264.474 169.194,296.64 128.5,321C 103.66,333.913 79.9929,348.579 57.5,365C 56.1772,365.816 55.5106,366.983 55.5,368.5C 54.8333,367.833 54.1667,367.167 53.5,366.5C 49.3518,356.866 45.1851,347.199 41,337.5C 38.8568,331.572 37.0234,325.572 35.5,319.5C 76.3172,283.092 112.484,242.759 144,198.5C 164.504,166.822 185.504,135.489 207,104.5C 227.989,77.539 250.156,51.539 273.5,26.5 Z"/></g>
<g><path style="opacity:0.995" fill="#f9b95d" d="M 498.5,34.5 C 505.454,46.6957 509.787,59.6957 511.5,73.5C 511.5,82.5 511.5,91.5 511.5,100.5C 506.703,136.23 496.036,170.23 479.5,202.5C 414.167,321.833 321.833,414.167 202.5,479.5C 171.091,495.415 138.091,506.082 103.5,511.5C 92.5,511.5 81.5,511.5 70.5,511.5C 29.1535,505.487 5.48685,481.82 -0.5,440.5C -0.5,429.167 -0.5,417.833 -0.5,406.5C 4.55432,372.337 15.221,340.003 31.5,309.5C 32.8333,312.833 34.1667,316.167 35.5,319.5C 37.0234,325.572 38.8568,331.572 41,337.5C 45.1851,347.199 49.3518,356.866 53.5,366.5C 44.6138,388.534 42.4472,411.2 47,434.5C 53.5237,452.689 66.357,463.189 85.5,466C 105.849,467.719 125.516,464.886 144.5,457.5C 145.959,457.567 147.292,457.234 148.5,456.5C 182.041,443.566 213.374,426.733 242.5,406C 323.185,347.994 388.352,276.161 438,190.5C 445.613,175.945 452.113,160.945 457.5,145.5C 464.019,127.05 466.853,108.05 466,88.5C 464.444,72.6981 457.277,60.3648 444.5,51.5C 462.128,44.688 480.128,39.0213 498.5,34.5 Z M 53.5,366.5 C 54.1667,367.167 54.8333,367.833 55.5,368.5C 57.739,373.407 60.4057,378.074 63.5,382.5C 81.2113,409.211 103.545,431.211 130.5,448.5C 135.167,451.5 139.833,454.5 144.5,457.5C 125.516,464.886 105.849,467.719 85.5,466C 66.357,463.189 53.5237,452.689 47,434.5C 42.4472,411.2 44.6138,388.534 53.5,366.5 Z"/></g>
<g><path style="opacity:1" fill="#e38700" d="M 365.5,54.5 C 371.005,56.7487 376.005,59.7487 380.5,63.5C 354.202,90.2987 327.702,116.965 301,143.5C 289.178,156.987 278.511,171.32 269,186.5C 253.655,219.221 234.322,249.221 211,276.5C 189.781,299.404 165.948,318.904 139.5,335C 112.687,348.683 87.3532,364.517 63.5,382.5C 60.4057,378.074 57.739,373.407 55.5,368.5C 55.5106,366.983 56.1772,365.816 57.5,365C 79.9929,348.579 103.66,333.913 128.5,321C 169.194,296.64 202.36,264.474 228,224.5C 241.226,198.372 256.226,173.372 273,149.5C 302.612,116.721 333.445,85.0539 365.5,54.5 Z"/></g>
<g><path style="opacity:0.999" fill="#f4ad44" d="M 380.5,63.5 C 398.366,74.894 414.533,88.5607 429,104.5C 434.464,110.784 439.297,117.45 443.5,124.5C 433.664,132.833 423.664,140.999 413.5,149C 388.558,165.61 363.892,182.61 339.5,200C 306.512,226.319 277.678,256.486 253,290.5C 239.579,311.002 226.912,332.002 215,353.5C 191.65,389.356 163.484,421.022 130.5,448.5C 103.545,431.211 81.2113,409.211 63.5,382.5C 87.3532,364.517 112.687,348.683 139.5,335C 165.948,318.904 189.781,299.404 211,276.5C 234.322,249.221 253.655,219.221 269,186.5C 278.511,171.32 289.178,156.987 301,143.5C 327.702,116.965 354.202,90.2987 380.5,63.5 Z"/></g>
<g><path style="opacity:1" fill="#e38700" d="M 443.5,124.5 C 447.564,128.947 450.898,133.947 453.5,139.5C 443.046,148.232 432.379,156.732 421.5,165C 396.224,181.943 371.224,199.277 346.5,217C 308.874,247.615 277.374,283.448 252,324.5C 225.891,375.035 191.391,419.035 148.5,456.5C 147.292,457.234 145.959,457.567 144.5,457.5C 139.833,454.5 135.167,451.5 130.5,448.5C 163.484,421.022 191.65,389.356 215,353.5C 226.912,332.002 239.579,311.002 253,290.5C 277.678,256.486 306.512,226.319 339.5,200C 363.892,182.61 388.558,165.61 413.5,149C 423.664,140.999 433.664,132.833 443.5,124.5 Z"/></g>
<g><path style="opacity:1" fill="#ef9c23" d="M 453.5,139.5 C 454.833,141.5 456.167,143.5 457.5,145.5C 452.113,160.945 445.613,175.945 438,190.5C 388.352,276.161 323.185,347.994 242.5,406C 213.374,426.733 182.041,443.566 148.5,456.5C 191.391,419.035 225.891,375.035 252,324.5C 277.374,283.448 308.874,247.615 346.5,217C 371.224,199.277 396.224,181.943 421.5,165C 432.379,156.732 443.046,148.232 453.5,139.5 Z"/></g>
<g><path style="opacity:0.992" fill="#e38700" d="M 479.5,202.5 C 495.338,281.828 476.838,351.828 424,412.5C 362.369,474.427 288.536,496.76 202.5,479.5C 321.833,414.167 414.167,321.833 479.5,202.5 Z"/></g>
</svg>
