<?xml version="1.0" encoding="UTF-8"?>
<!DOCTYPE svg PUBLIC "-//W3C//DTD SVG 1.1//EN" "http://www.w3.org/Graphics/SVG/1.1/DTD/svg11.dtd">
<svg xmlns="http://www.w3.org/2000/svg" version="1.1" width="512px" height="512px" style="shape-rendering:geometricPrecision; text-rendering:geometricPrecision; image-rendering:optimizeQuality; fill-rule:evenodd; clip-rule:evenodd" xmlns:xlink="http://www.w3.org/1999/xlink">
<g><path style="opacity:0.978" fill="#faba5d" d="M 232.5,-0.5 C 240.167,-0.5 247.833,-0.5 255.5,-0.5C 255.5,5.5 255.5,11.5 255.5,17.5C 221.093,17.148 188.26,24.148 157,38.5C 153.154,33.4741 150.32,27.8074 148.5,21.5C 175.527,10.0776 203.527,2.74427 232.5,-0.5 Z"/></g>
<g><path style="opacity:0.975" fill="#faba5d" d="M 291.5,1.5 C 328.829,6.5512 363.163,19.3845 394.5,40C 391.292,44.2471 388.458,48.7471 386,53.5C 384.951,54.5171 383.784,54.6838 382.5,54C 353.567,35.9647 322.234,24.1313 288.5,18.5C 289.593,12.8449 290.593,7.17819 291.5,1.5 Z"/></g>
<g><path style="opacity:0.975" fill="#faba5d" d="M 116.5,39.5 C 119.803,43.6512 122.97,47.9845 126,52.5C 126.667,53.5 126.667,54.5 126,55.5C 97.8333,74.3333 74.3333,97.8333 55.5,126C 54.5,126.667 53.5,126.667 52.5,126C 48.1667,123 43.8333,120 39.5,117C 60.0267,85.9735 85.6934,60.1402 116.5,39.5 Z"/></g>
<g><path style="opacity:0.976" fill="#f5ad45" d="M 237.5,50.5 C 267.224,48.6911 296.224,52.3577 324.5,61.5C 323.032,67.2368 321.365,72.9034 319.5,78.5C 303.813,73.8626 287.813,70.6959 271.5,69C 255.037,67.8576 238.704,68.691 222.5,71.5C 220.312,65.7161 218.979,59.7161 218.5,53.5C 224.977,52.5766 231.311,51.5766 237.5,50.5 Z"/></g>
<g><path style="opacity:0.974" fill="#fab95d" d="M 421.5,61.5 C 422.552,61.3505 423.552,61.5172 424.5,62C 451.436,85.9216 472.602,114.088 488,146.5C 488.749,147.635 488.583,148.635 487.5,149.5C 482.712,151.978 477.879,154.311 473,156.5C 458.049,125.535 437.716,98.5352 412,75.5C 411.333,74.8333 411.333,74.1667 412,73.5C 415.381,69.625 418.547,65.625 421.5,61.5 Z"/></g>
<g><path style="opacity:0.975" fill="#f5ae45" d="M 183.5,62.5 C 187.358,67.7121 189.691,73.7121 190.5,80.5C 159.513,92.154 133.18,110.487 111.5,135.5C 106.688,131.856 102.021,128.022 97.5,124C 121.119,96.3647 149.786,75.8647 183.5,62.5 Z"/></g>
<g><path style="opacity:0.978" fill="#f5ae45" d="M 355.5,76.5 C 387.834,94.3322 413.501,119.166 432.5,151C 427.632,155.094 422.299,158.094 416.5,160C 399.285,131.785 376.452,109.285 348,92.5C 350.178,87.1374 352.678,81.8041 355.5,76.5 Z"/></g>
<g><path style="opacity:0.996" fill="#f09c22" d="M 252.5,109.5 C 305.21,110.267 346.71,131.933 377,174.5C 406.384,223.219 408.718,273.219 384,324.5C 351.354,379.577 302.854,404.744 238.5,400C 181.084,391.245 141.251,360.078 119,306.5C 98.4716,239.744 114.638,183.911 167.5,139C 192.943,120.686 221.276,110.853 252.5,109.5 Z"/></g>
<g><path style="opacity:0.975" fill="#faba5d" d="M -0.5,256.5 C -0.5,248.833 -0.5,241.167 -0.5,233.5C 2.20457,206.682 8.70457,180.682 19,155.5C 20.0804,153.004 21.4138,150.67 23,148.5C 28.5641,150.697 33.7308,153.53 38.5,157C 24.1414,188.603 17.1414,221.769 17.5,256.5C 11.5,256.5 5.5,256.5 -0.5,256.5 Z"/></g>
<g><path style="opacity:0.974" fill="#f5ae45" d="M 77.5,152.5 C 82.9708,155.403 88.3041,158.57 93.5,162C 76.1611,192.522 67.8278,225.355 68.5,260.5C 62.5746,260.192 56.7412,260.525 51,261.5C 49.6249,222.668 58.4582,186.334 77.5,152.5 Z"/></g>
<g><path style="opacity:0.973" fill="#faba5d" d="M 511.5,232.5 C 511.5,247.5 511.5,262.5 511.5,277.5C 510.578,281.995 509.911,286.662 509.5,291.5C 503.489,290.927 497.489,290.26 491.5,289.5C 493.438,271.222 493.938,252.889 493,234.5C 491.219,218.606 488.552,202.939 485,187.5C 490.368,184.948 495.868,183.615 501.5,183.5C 506.396,199.647 509.729,215.981 511.5,232.5 Z"/></g>
<g><path style="opacity:0.974" fill="#f5ae45" d="M 446.5,182.5 C 449.316,187.418 451.482,192.752 453,198.5C 460.743,228.125 462.576,258.125 458.5,288.5C 452.5,287.833 446.5,287.167 440.5,286.5C 445.658,253.255 442.324,220.922 430.5,189.5C 435.925,187.145 441.258,184.812 446.5,182.5 Z"/></g>
<g><path style="opacity:0.973" fill="#faba5d" d="M 18.5,289.5 C 24.5314,323.737 36.8648,355.57 55.5,385C 50.9625,388.858 46.1292,392.358 41,395.5C 20.4803,364.456 7.3136,330.456 1.5,293.5C 7.17363,291.793 12.8403,290.46 18.5,289.5 Z"/></g>
<g><path style="opacity:0.975" fill="#f5ae45" d="M 66.5,292.5 C 68.5,292.5 70.5,292.5 72.5,292.5C 79.1793,325.022 93.1793,353.856 114.5,379C 110.701,383.164 106.534,386.997 102,390.5C 77.7833,364.072 61.95,333.072 54.5,297.5C 54.8178,296.353 55.4844,295.519 56.5,295C 60.0382,294.465 63.3716,293.632 66.5,292.5 Z"/></g>
<g><path style="opacity:0.976" fill="#f5ae45" d="M 432.5,316.5 C 438.031,318.399 443.531,320.399 449,322.5C 437.745,357.597 417.911,386.93 389.5,410.5C 386.544,407.042 383.377,403.708 380,400.5C 379.362,399.391 378.862,398.225 378.5,397C 403.056,374.603 421.056,347.769 432.5,316.5 Z"/></g>
<g><path style="opacity:0.973" fill="#faba5e" d="M 484.5,321.5 C 490.079,322.936 495.579,324.603 501,326.5C 491.919,362.498 475.086,394.331 450.5,422C 449.5,422.667 448.5,422.667 447.5,422C 444.283,418.483 440.783,415.316 437,412.5C 436.333,411.5 436.333,410.5 437,409.5C 459.332,383.847 475.165,354.514 484.5,321.5 Z"/></g>
<g><path style="opacity:0.976" fill="#f5ae45" d="M 136.5,401.5 C 137.552,401.351 138.552,401.517 139.5,402C 165.366,422.523 194.699,435.523 227.5,441C 226.235,446.755 225.235,452.588 224.5,458.5C 187.801,452.779 155.134,438.279 126.5,415C 130.461,410.886 133.794,406.386 136.5,401.5 Z"/></g>
<g><path style="opacity:0.977" fill="#faba5d" d="M 74.5,412.5 C 82.578,419.073 90.2447,426.24 97.5,434C 115.579,449.462 135.412,462.295 157,472.5C 155.562,478.398 153.228,484.064 150,489.5C 117.144,474.324 88.4777,453.324 64,426.5C 63.0181,425.241 62.6848,423.908 63,422.5C 67.0261,419.302 70.8595,415.968 74.5,412.5 Z"/></g>
<g><path style="opacity:0.975" fill="#f5ae45" d="M 349.5,416.5 C 350.978,416.238 352.311,416.571 353.5,417.5C 356.041,422.082 358.707,426.582 361.5,431C 329.927,450.244 295.593,460.077 258.5,460.5C 258.5,454.5 258.5,448.5 258.5,442.5C 291.322,442.049 321.655,433.382 349.5,416.5 Z"/></g>
<g><path style="opacity:0.978" fill="#faba5d" d="M 410.5,435.5 C 411.552,435.351 412.552,435.517 413.5,436C 417.049,440.26 420.716,444.427 424.5,448.5C 396.385,472.898 364.385,490.564 328.5,501.5C 326.019,495.723 324.352,489.723 323.5,483.5C 356.407,474.187 385.407,458.187 410.5,435.5 Z"/></g>
<g><path style="opacity:0.977" fill="#fab95d" d="M 276.5,511.5 C 262.5,511.5 248.5,511.5 234.5,511.5C 217.194,509.872 200.194,506.372 183.5,501C 184.859,497.254 186.026,493.421 187,489.5C 187.265,487.349 188.265,485.682 190,484.5C 223.023,493.452 256.523,495.952 290.5,492C 291.729,497.763 292.729,503.597 293.5,509.5C 287.64,509.717 281.973,510.383 276.5,511.5 Z"/></g>
</svg>
