<?xml version="1.0" encoding="UTF-8"?>
<!DOCTYPE svg PUBLIC "-//W3C//DTD SVG 1.1//EN" "http://www.w3.org/Graphics/SVG/1.1/DTD/svg11.dtd">
<svg xmlns="http://www.w3.org/2000/svg" version="1.1" width="512px" height="512px" style="shape-rendering:geometricPrecision; text-rendering:geometricPrecision; image-rendering:optimizeQuality; fill-rule:evenodd; clip-rule:evenodd" xmlns:xlink="http://www.w3.org/1999/xlink">
<g><path style="opacity:0.979" fill="#67cbd6" d="M 461.5,-0.5 C 469.167,-0.5 476.833,-0.5 484.5,-0.5C 497.866,2.52968 506.866,10.5297 511.5,23.5C 511.5,33.8333 511.5,44.1667 511.5,54.5C 503.623,83.2604 491.623,110.26 475.5,135.5C 385.5,271.5 272.5,384.5 136.5,474.5C 109.881,491.815 81.2145,504.148 50.5,511.5C 42.5,511.5 34.5,511.5 26.5,511.5C 10.5778,506.238 1.57785,495.238 -0.5,478.5C -0.5,474.833 -0.5,471.167 -0.5,467.5C 3.88653,442.518 12.3865,418.851 25,396.5C 29.4316,389.302 33.5983,381.968 37.5,374.5C 41.2249,379.597 44.7249,384.93 48,390.5C 48.4828,391.448 48.6495,392.448 48.5,393.5C 32.1706,417.983 21.8373,444.816 17.5,474C 18.5255,487.524 25.8588,494.357 39.5,494.5C 54.1014,492.85 68.1014,489.016 81.5,483C 94.1794,476.995 106.513,470.495 118.5,463.5C 152.35,444.651 184.017,422.651 213.5,397.5C 263.596,357.745 309.929,313.745 352.5,265.5C 394.49,220.842 431.657,172.508 464,120.5C 464.483,119.552 464.649,118.552 464.5,117.5C 476.958,97.575 486.458,76.2417 493,53.5C 494.478,45.8887 494.812,38.222 494,30.5C 490.604,20.6236 483.604,16.2903 473,17.5C 457.066,18.8102 441.9,22.9769 427.5,30C 415.983,35.591 404.65,41.4243 393.5,47.5C 386.824,44.834 380.824,41.1673 375.5,36.5C 402.334,19.7454 431.001,7.41205 461.5,-0.5 Z M 48.5,393.5 C 50.5917,396.681 52.925,399.681 55.5,402.5C 58.6025,407.052 61.9358,411.386 65.5,415.5C 72.4654,424.133 80.1321,432.133 88.5,439.5C 97.7699,448.461 107.77,456.461 118.5,463.5C 106.513,470.495 94.1794,476.995 81.5,483C 68.1014,489.016 54.1014,492.85 39.5,494.5C 25.8588,494.357 18.5255,487.524 17.5,474C 21.8373,444.816 32.1706,417.983 48.5,393.5 Z"/></g>
<g><path style="opacity:0.997" fill="#67cbd6" d="M 242.5,7.5 C 270.36,5.37323 297.693,8.37323 324.5,16.5C 238.651,134.021 135.318,233.021 14.5,313.5C 7.94491,288.266 5.94491,262.599 8.5,236.5C 97.8546,171.483 176.855,95.4828 245.5,8.5C 244.675,7.61432 243.675,7.28099 242.5,7.5 Z"/></g>
<g><path style="opacity:1" fill="#28679c" d="M 242.5,7.5 C 243.675,7.28099 244.675,7.61432 245.5,8.5C 176.855,95.4828 97.8546,171.483 8.5,236.5C 8.58546,228.251 9.58546,220.251 11.5,212.5C 90.845,153.827 161.512,85.8275 223.5,8.5C 229.815,7.89049 236.149,7.55715 242.5,7.5 Z"/></g>
<g><path style="opacity:0.994" fill="#288edd" d="M 223.5,8.5 C 161.512,85.8275 90.845,153.827 11.5,212.5C 28.2264,127.955 75.2264,66.7886 152.5,29C 175.228,18.9014 198.895,12.0681 223.5,8.5 Z"/></g>
<g><path style="opacity:1" fill="#28679c" d="M 324.5,16.5 C 330.172,17.3926 335.506,19.0592 340.5,21.5C 339.872,24.09 338.705,26.4234 337,28.5C 248.738,148.271 142.904,249.271 19.5,331.5C 17.0561,325.819 15.3894,319.819 14.5,313.5C 135.318,233.021 238.651,134.021 324.5,16.5 Z"/></g>
<g><path style="opacity:0.999" fill="#288edd" d="M 340.5,21.5 C 352.545,25.6912 364.212,30.6912 375.5,36.5C 380.824,41.1673 386.824,44.834 393.5,47.5C 399.451,51.45 405.118,55.7833 410.5,60.5C 311.63,195.042 193.297,309.042 55.5,402.5C 52.925,399.681 50.5917,396.681 48.5,393.5C 48.6495,392.448 48.4828,391.448 48,390.5C 44.7249,384.93 41.2249,379.597 37.5,374.5C 29.9373,360.81 23.9373,346.476 19.5,331.5C 142.904,249.271 248.738,148.271 337,28.5C 338.705,26.4234 339.872,24.09 340.5,21.5 Z"/></g>
<g><path style="opacity:1" fill="#27669c" d="M 410.5,60.5 C 414.817,63.4864 418.817,66.8197 422.5,70.5C 418.167,77.1667 413.833,83.8333 409.5,90.5C 323.167,203.333 222.834,301.833 108.5,386C 94.1378,395.843 79.8045,405.677 65.5,415.5C 61.9358,411.386 58.6025,407.052 55.5,402.5C 193.297,309.042 311.63,195.042 410.5,60.5 Z"/></g>
<g><path style="opacity:0.998" fill="#2178b8" d="M 422.5,70.5 C 438.668,84.3285 452.668,99.9952 464.5,117.5C 464.649,118.552 464.483,119.552 464,120.5C 431.657,172.508 394.49,220.842 352.5,265.5C 385.69,211.927 404.69,153.593 409.5,90.5C 413.833,83.8333 418.167,77.1667 422.5,70.5 Z"/></g>
<g><path style="opacity:1" fill="#2381c6" d="M 409.5,90.5 C 404.69,153.593 385.69,211.927 352.5,265.5C 309.929,313.745 263.596,357.745 213.5,397.5C 174.128,418.099 132.461,432.099 88.5,439.5C 80.1321,432.133 72.4654,424.133 65.5,415.5C 79.8045,405.677 94.1378,395.843 108.5,386C 222.834,301.833 323.167,203.333 409.5,90.5 Z"/></g>
<g><path style="opacity:0.997" fill="#2178b8" d="M 475.5,135.5 C 489.094,160.947 498.094,187.947 502.5,216.5C 501.883,216.389 501.383,216.056 501,215.5C 402.684,286.144 316.351,369.478 242,465.5C 233.235,477.383 224.735,489.383 216.5,501.5C 188.193,497.287 161.526,488.287 136.5,474.5C 272.5,384.5 385.5,271.5 475.5,135.5 Z"/></g>
<g><path style="opacity:1" fill="#27669c" d="M 502.5,216.5 C 502.5,217.167 502.5,217.833 502.5,218.5C 502.701,224.193 502.868,229.86 503,235.5C 400.167,310.333 311.333,399.167 236.5,502C 230.161,502.348 223.827,502.182 217.5,501.5C 217.167,501.5 216.833,501.5 216.5,501.5C 224.735,489.383 233.235,477.383 242,465.5C 316.351,369.478 402.684,286.144 501,215.5C 501.383,216.056 501.883,216.389 502.5,216.5 Z"/></g>
<g><path style="opacity:0.997" fill="#2177b7" d="M 502.5,218.5 C 514.473,317.114 481.473,396.948 403.5,458C 347.23,497.285 285.23,511.785 217.5,501.5C 223.827,502.182 230.161,502.348 236.5,502C 311.333,399.167 400.167,310.333 503,235.5C 502.868,229.86 502.701,224.193 502.5,218.5 Z"/></g>
<g><path style="opacity:1" fill="#27669c" d="M 498.5,301.5 C 499.376,301.369 500.043,301.702 500.5,302.5C 498.974,310.744 496.64,318.744 493.5,326.5C 427.767,373.733 370.767,429.899 322.5,495C 314.637,496.891 306.804,498.724 299,500.5C 298.333,499.833 298.333,499.167 299,498.5C 353.793,420.873 420.293,355.207 498.5,301.5 Z"/></g>
<g><path style="opacity:0.997" fill="#2178b8" d="M 213.5,397.5 C 184.017,422.651 152.35,444.651 118.5,463.5C 107.77,456.461 97.7699,448.461 88.5,439.5C 132.461,432.099 174.128,418.099 213.5,397.5 Z"/></g>
</svg>
