<?xml version="1.0" encoding="UTF-8"?>
<!DOCTYPE svg PUBLIC "-//W3C//DTD SVG 1.1//EN" "http://www.w3.org/Graphics/SVG/1.1/DTD/svg11.dtd">
<svg xmlns="http://www.w3.org/2000/svg" version="1.1" width="512px" height="512px" style="shape-rendering:geometricPrecision; text-rendering:geometricPrecision; image-rendering:optimizeQuality; fill-rule:evenodd; clip-rule:evenodd" xmlns:xlink="http://www.w3.org/1999/xlink">
<g><path style="opacity:0.988" fill="#ef6227" d="M 234.5,-0.5 C 248.167,-0.5 261.833,-0.5 275.5,-0.5C 275.5,-0.166667 275.5,0.166667 275.5,0.5C 268.745,-0.331866 262.411,0.834801 256.5,4C 244.653,12.758 232.986,21.758 221.5,31C 203.158,42.5592 183.158,49.5592 161.5,52C 140.836,52.5 120.169,52.6666 99.5,52.5C 127.797,29.8546 159.797,14.3546 195.5,6C 208.536,3.16064 221.536,0.993976 234.5,-0.5 Z"/></g>
<g><path style="opacity:1" fill="#d44a0c" d="M 275.5,0.5 C 284.277,0.68066 292.944,1.68066 301.5,3.5C 276.768,11.0458 255.101,23.8791 236.5,42C 212.533,58.8786 185.867,68.2119 156.5,70C 130.663,70.8301 104.997,70.6634 79.5,69.5C 81.6281,66.8697 83.9614,64.3697 86.5,62C 90.5376,58.3258 94.8709,55.1591 99.5,52.5C 120.169,52.6666 140.836,52.5 161.5,52C 183.158,49.5592 203.158,42.5592 221.5,31C 232.986,21.758 244.653,12.758 256.5,4C 262.411,0.834801 268.745,-0.331866 275.5,0.5 Z"/></g>
<g><path style="opacity:0.999" fill="#ef6227" d="M 301.5,3.5 C 343.972,10.9103 381.639,28.2437 414.5,55.5C 413.609,81.8666 410.942,108.2 406.5,134.5C 395.742,142.33 387.575,152.33 382,164.5C 363.489,189.174 338.655,201.841 307.5,202.5C 307.5,208.5 307.5,214.5 307.5,220.5C 343.128,219.185 372.128,204.852 394.5,177.5C 386.776,201.285 377.11,224.285 365.5,246.5C 329.519,249.671 296.186,241.837 265.5,223C 254.517,214.508 243.184,206.508 231.5,199C 207.51,185.67 181.843,178.003 154.5,176C 106.834,175.5 59.1678,175.333 11.5,175.5C 15.683,162.6 21.0163,150.267 27.5,138.5C 51.6574,139.833 76.1574,140.5 101,140.5C 125.5,140.333 150,140.167 174.5,140C 198.057,136.825 218.724,127.491 236.5,112C 244.934,102.476 253.601,93.1431 262.5,84C 280.774,69.074 301.774,61.574 325.5,61.5C 325.5,55.5 325.5,49.5 325.5,43.5C 297.334,44.2587 272.334,53.4254 250.5,71C 240.142,82.3574 229.475,93.3574 218.5,104C 203.589,114.782 186.923,121.115 168.5,123C 124.168,123.5 79.8346,123.667 35.5,123.5C 47.3259,103.179 61.9926,85.1791 79.5,69.5C 104.997,70.6634 130.663,70.8301 156.5,70C 185.867,68.2119 212.533,58.8786 236.5,42C 255.101,23.8791 276.768,11.0458 301.5,3.5 Z"/></g>
<g><path style="opacity:1" fill="#d44a0c" d="M 27.5,138.5 C 29.4068,133.016 32.0734,128.016 35.5,123.5C 79.8346,123.667 124.168,123.5 168.5,123C 186.923,121.115 203.589,114.782 218.5,104C 229.475,93.3574 240.142,82.3574 250.5,71C 272.334,53.4254 297.334,44.2587 325.5,43.5C 325.5,49.5 325.5,55.5 325.5,61.5C 301.774,61.574 280.774,69.074 262.5,84C 253.601,93.1431 244.934,102.476 236.5,112C 218.724,127.491 198.057,136.825 174.5,140C 150,140.167 125.5,140.333 101,140.5C 76.1574,140.5 51.6574,139.833 27.5,138.5 Z"/></g>
<g><path style="opacity:0.998" fill="#de5419" d="M 414.5,55.5 C 439.133,74.1297 459.133,96.7964 474.5,123.5C 460.163,123.333 445.829,123.5 431.5,124C 422.242,125.47 413.909,128.97 406.5,134.5C 410.942,108.2 413.609,81.8666 414.5,55.5 Z"/></g>
<g><path style="opacity:1" fill="#d44a0c" d="M 310.5,87.5 C 345.534,88.5914 362.034,106.591 360,141.5C 351.397,167.226 333.564,178.392 306.5,175C 280.671,165.85 269.838,147.684 274,120.5C 280.094,102.563 292.261,91.5634 310.5,87.5 Z"/></g>
<g><path style="opacity:1" fill="#ef6227" d="M 310.5,105.5 C 331.824,104.328 342.657,114.328 343,135.5C 338.894,151.939 328.394,159.439 311.5,158C 295.736,152.886 288.903,142.053 291,125.5C 294.351,115.65 300.851,108.983 310.5,105.5 Z"/></g>
<g><path style="opacity:1" fill="#d44a0c" d="M 474.5,123.5 C 477.669,127.833 480.336,132.5 482.5,137.5C 482.5,138.5 482.5,139.5 482.5,140.5C 467.496,140.333 452.496,140.5 437.5,141C 424.745,142.794 414.245,148.627 406,158.5C 402.311,164.999 398.478,171.333 394.5,177.5C 372.128,204.852 343.128,219.185 307.5,220.5C 307.5,214.5 307.5,208.5 307.5,202.5C 338.655,201.841 363.489,189.174 382,164.5C 387.575,152.33 395.742,142.33 406.5,134.5C 413.909,128.97 422.242,125.47 431.5,124C 445.829,123.5 460.163,123.333 474.5,123.5 Z"/></g>
<g><path style="opacity:1" fill="#d44a0c" d="M 11.5,175.5 C 59.1678,175.333 106.834,175.5 154.5,176C 181.843,178.003 207.51,185.67 231.5,199C 243.184,206.508 254.517,214.508 265.5,223C 296.186,241.837 329.519,249.671 365.5,246.5C 413.833,246.5 462.167,246.5 510.5,246.5C 510.5,252.5 510.5,258.5 510.5,264.5C 452.493,264.756 394.493,264.423 336.5,263.5C 306.782,261.983 279.449,253.149 254.5,237C 243.517,228.508 232.184,220.508 220.5,213C 199.854,202.005 177.854,195.671 154.5,194C 105.168,193.5 55.8345,193.333 6.5,193.5C 7.85542,187.411 9.52208,181.411 11.5,175.5 Z"/></g>
<g><path style="opacity:0.999" fill="#ef6227" d="M 6.5,193.5 C 55.8345,193.333 105.168,193.5 154.5,194C 177.854,195.671 199.854,202.005 220.5,213C 232.184,220.508 243.517,228.508 254.5,237C 279.449,253.149 306.782,261.983 336.5,263.5C 342.014,264.167 347.681,264.833 353.5,265.5C 348.199,274.125 342.532,282.458 336.5,290.5C 293.401,289.798 263.901,309.464 248,349.5C 224.779,384.864 191.946,403.198 149.5,404.5C 149.5,410.5 149.5,416.5 149.5,422.5C 152.833,422.5 156.167,422.5 159.5,422.5C 160.552,422.351 161.552,422.517 162.5,423C 136.432,432.36 110.099,439.86 83.5,445.5C 44.5158,410.22 18.8491,366.887 6.5,315.5C 29.6603,317.726 48.8269,310.06 64,292.5C 70.3333,283.167 76.6667,273.833 83,264.5C 112.597,233.762 145.763,229.262 182.5,251C 208.151,271.46 215.984,297.293 206,328.5C 192.227,353.983 171.061,364.15 142.5,359C 120.012,349.189 111.512,332.356 117,308.5C 126.812,289.833 141.312,284.666 160.5,293C 166.599,297.697 169.599,303.863 169.5,311.5C 175.5,311.5 181.5,311.5 187.5,311.5C 183.748,282.923 167.414,269.423 138.5,271C 108.392,280.048 94.8924,300.215 98,331.5C 107.109,363.471 128.275,378.971 161.5,378C 195.365,373.137 217.198,354.303 227,321.5C 231.913,282.833 218.079,252.999 185.5,232C 142.499,210.815 104.333,217.315 71,251.5C 64.0865,260.993 57.4199,270.659 51,280.5C 44.5782,288.625 36.4116,294.125 26.5,297C 18.4736,297.642 10.8069,298.808 3.5,300.5C 1.88753,293.211 0.554197,285.878 -0.5,278.5C -0.5,263.167 -0.5,247.833 -0.5,232.5C 1.05914,219.488 3.39247,206.488 6.5,193.5 Z"/></g>
<g><path style="opacity:1" fill="#d44a0c" d="M 6.5,315.5 C 4.73945,310.769 3.73945,305.769 3.5,300.5C 10.8069,298.808 18.4736,297.642 26.5,297C 36.4116,294.125 44.5782,288.625 51,280.5C 57.4199,270.659 64.0865,260.993 71,251.5C 104.333,217.315 142.499,210.815 185.5,232C 218.079,252.999 231.913,282.833 227,321.5C 217.198,354.303 195.365,373.137 161.5,378C 128.275,378.971 107.109,363.471 98,331.5C 94.8924,300.215 108.392,280.048 138.5,271C 167.414,269.423 183.748,282.923 187.5,311.5C 181.5,311.5 175.5,311.5 169.5,311.5C 169.599,303.863 166.599,297.697 160.5,293C 141.312,284.666 126.812,289.833 117,308.5C 111.512,332.356 120.012,349.189 142.5,359C 171.061,364.15 192.227,353.983 206,328.5C 215.984,297.293 208.151,271.46 182.5,251C 145.763,229.262 112.597,233.762 83,264.5C 76.6667,273.833 70.3333,283.167 64,292.5C 48.8269,310.06 29.6603,317.726 6.5,315.5 Z"/></g>
<g><path style="opacity:1" fill="#d44a0c" d="M 336.5,290.5 C 393.5,290.5 450.5,290.5 507.5,290.5C 507.051,296.526 506.385,302.526 505.5,308.5C 444.5,308.5 383.5,308.5 322.5,308.5C 301.956,310.883 285.79,320.55 274,337.5C 268.247,349.35 261.747,360.683 254.5,371.5C 229.769,401.366 198.103,418.366 159.5,422.5C 156.167,422.5 152.833,422.5 149.5,422.5C 149.5,416.5 149.5,410.5 149.5,404.5C 191.946,403.198 224.779,384.864 248,349.5C 263.901,309.464 293.401,289.798 336.5,290.5 Z"/></g>
<g><path style="opacity:0.999" fill="#dd5318" d="M 482.5,137.5 C 498.847,168.559 508.514,201.559 511.5,236.5C 511.5,249.5 511.5,262.5 511.5,275.5C 499.947,376.876 447.947,449.043 355.5,492C 330.012,502.456 303.678,508.956 276.5,511.5C 262.5,511.5 248.5,511.5 234.5,511.5C 188.695,507.234 147.029,491.9 109.5,465.5C 206.126,466.662 302.793,466.828 399.5,466C 406.784,461.05 413.784,455.717 420.5,450C 310.5,449.333 200.5,449.333 90.5,450C 91.3805,450.708 92.0472,451.542 92.5,452.5C 89.2327,450.573 86.2327,448.239 83.5,445.5C 110.099,439.86 136.432,432.36 162.5,423C 161.552,422.517 160.552,422.351 159.5,422.5C 198.103,418.366 229.769,401.366 254.5,371.5C 270.985,359.863 286.485,346.863 301,332.5C 308.374,324.629 315.541,316.629 322.5,308.5C 383.5,308.5 444.5,308.5 505.5,308.5C 506.385,302.526 507.051,296.526 507.5,290.5C 450.5,290.5 393.5,290.5 336.5,290.5C 342.532,282.458 348.199,274.125 353.5,265.5C 347.681,264.833 342.014,264.167 336.5,263.5C 394.493,264.423 452.493,264.756 510.5,264.5C 510.5,258.5 510.5,252.5 510.5,246.5C 462.167,246.5 413.833,246.5 365.5,246.5C 377.11,224.285 386.776,201.285 394.5,177.5C 398.478,171.333 402.311,164.999 406,158.5C 414.245,148.627 424.745,142.794 437.5,141C 452.496,140.5 467.496,140.333 482.5,140.5C 482.5,139.5 482.5,138.5 482.5,137.5 Z"/></g>
<g><path style="opacity:1" fill="#ef6227" d="M 322.5,308.5 C 315.541,316.629 308.374,324.629 301,332.5C 286.485,346.863 270.985,359.863 254.5,371.5C 261.747,360.683 268.247,349.35 274,337.5C 285.79,320.55 301.956,310.883 322.5,308.5 Z"/></g>
<g><path style="opacity:1" fill="#d44a0c" d="M 318.5,334.5 C 339.371,332.898 353.205,341.898 360,361.5C 361.666,392.167 347.166,406.334 316.5,404C 293.117,394.391 285.617,377.558 294,353.5C 299.712,343.906 307.879,337.573 318.5,334.5 Z"/></g>
<g><path style="opacity:1" fill="#dd5318" d="M 319.5,352.5 C 334.664,350.844 342.497,357.51 343,372.5C 339.729,383.754 332.229,388.588 320.5,387C 308.413,381.078 305.247,371.911 311,359.5C 313.441,356.546 316.275,354.213 319.5,352.5 Z"/></g>
<g><path style="opacity:1" fill="#d44a0c" d="M 109.5,465.5 C 102.974,462.31 97.3076,457.976 92.5,452.5C 92.0472,451.542 91.3805,450.708 90.5,450C 200.5,449.333 310.5,449.333 420.5,450C 413.784,455.717 406.784,461.05 399.5,466C 302.793,466.828 206.126,466.662 109.5,465.5 Z"/></g>
</svg>
