<svg version="1.0" xmlns="http://www.w3.org/2000/svg"
  width="{{ .width }}" height="{{ .height }}"  viewBox="0 0 512.000000 512.000000"
 preserveAspectRatio="xMidYMid meet">
<title>{{ T "home.home" }}</title>
<g transform="translate(0.000000,512.000000) scale(0.100000,-0.100000)"
stroke="none">
<path d="M2315 5109 c-386 -37 -783 -173 -1120 -385 l-105 -65 -63 25 c-263
105 -552 -47 -613 -323 -21 -91 -13 -180 22 -268 l25 -63 -65 -105 c-474 -755
-525 -1688 -136 -2480 137 -280 272 -468 494 -691 221 -220 412 -357 681 -489
188 -92 309 -137 500 -185 500 -126 1002 -102 1490 71 149 53 407 182 540 271
218 145 454 362 606 558 495 636 664 1434 469 2210 -59 235 -182 525 -306 720
-204 321 -502 619 -824 824 -108 69 -378 199 -500 241 -353 121 -733 168
-1095 134z m450 -299 c583 -54 1146 -347 1517 -790 225 -268 393 -596 471
-921 49 -201 61 -309 61 -539 0 -230 -12 -338 -61 -539 -78 -325 -246 -653
-471 -921 -296 -354 -732 -624 -1183 -733 -201 -49 -309 -61 -539 -61 -235 0
-341 12 -550 64 -469 116 -910 399 -1211 777 -368 461 -545 1051 -488 1629 33
339 160 714 333 979 l54 83 53 -14 c319 -83 628 226 545 545 l-14 53 77 50
c121 79 338 182 491 232 303 99 606 134 915 106z m-1827 -417 c43 -32 65 -69
69 -120 6 -56 -20 -102 -76 -140 -105 -71 -251 34 -227 162 8 42 50 93 91 111
39 18 110 12 143 -13z"/>
<path d="M2370 4209 c-761 -85 -1376 -704 -1459 -1471 -84 -770 386 -1505
1118 -1748 520 -173 1051 -92 1506 229 108 75 295 264 378 381 77 108 183 317
221 436 25 75 29 82 57 88 44 9 127 52 175 92 170 138 205 418 76 604 -50 72
-142 141 -220 166 l-62 19 -26 80 c-38 119 -145 327 -221 435 -83 117 -270
306 -378 381 -350 247 -754 354 -1165 308z m389 -305 c131 -19 318 -80 431
-141 297 -159 531 -424 640 -722 l30 -81 -23 -11 c-83 -43 -167 -149 -199
-251 -24 -79 -24 -197 0 -276 32 -102 116 -208 199 -251 l23 -11 -30 -81
c-111 -305 -355 -576 -656 -730 -201 -102 -379 -144 -614 -144 -178 0 -266 14
-415 62 -473 154 -827 552 -920 1035 -176 917 610 1738 1534 1602z m1389
-1214 c96 -59 96 -201 0 -260 -43 -26 -113 -26 -156 0 -130 79 -74 280 78 280
27 0 58 -8 78 -20z"/>
<path d="M2406 3304 c-150 -33 -274 -101 -381 -209 -156 -156 -235 -360 -222
-575 8 -118 27 -192 77 -295 96 -195 278 -344 490 -402 90 -24 290 -24 380 1
265 72 475 282 547 546 24 90 24 290 0 380 -72 262 -283 475 -542 545 -87 24
-264 28 -349 9z m245 -294 c84 -16 171 -65 237 -134 105 -109 148 -245 124
-388 -17 -98 -54 -171 -124 -244 -138 -144 -350 -183 -526 -98 -78 38 -172
130 -210 206 -172 342 122 728 499 658z"/>
</g>
</svg>
